<svg width="1000" height="589" viewBox="0 0 1000 589" fill="none" xmlns="http://www.w3.org/2000/svg">
    <rect width="1000" height="589" fill="#C6C6C6"/>
    <g id="us 1">
        <path id="Massachusetts" d="M956.312 153.05L956.021 152.856V153.147L956.312 153.05ZM953.4 150.43L954.079 150.139V149.75L953.4 150.43ZM965.436 142.859L965.339 141.5L965.145 140.723L965.436 142.859ZM923.019 132.861L922.34 133.152L916.807 134.803L914.866 135.482L912.633 136.161L911.857 136.453V136.744L912.148 141.791L912.439 146.45L912.731 150.721L913.216 151.012L914.963 150.527L922.825 148.197L923.019 148.683L936.996 143.344L937.093 143.538L938.355 143.053L942.82 141.306L947.091 146.45L947.673 145.965L947.964 144.509L947.867 146.838H948.838L949.129 148.003L950.003 149.653L954.565 144.121L958.35 145.382L959.224 143.441L965.436 140.141L962.815 134.997L963.495 138.297L960.291 140.723L956.7 141.015L949.517 133.347L946.314 128.493L949.517 125.096L946.217 124.902L944.858 121.699L944.761 121.505L939.229 127.523L926.999 131.599L923.019 132.861Z" fill="#F9F9F9" stroke="black" stroke-width="0.970631" stroke-linejoin="round"/>
        <path id="Minnesota" d="M558.547 73.8472L560.488 80.7387L564.565 105.587L566.506 115.487L567.089 124.223L569.321 129.464L569.807 133.929L570.195 135.385L570.098 135.676L566.215 142.083L568.739 146.353L573.592 180.52L573.786 184.984L578.639 184.693L597.761 183.626L645.516 179.646L650.272 179.161V178.675L648.913 171.201L642.992 168.193L638.333 163.339L630.956 158.874L628.627 158.68L625.035 155.963L626.006 142.568L622.609 139.462L623.774 134.026L629.986 128.397L628.918 116.749L631.15 114.225L638.721 106.266L647.36 95.2011L650.66 92.8716L656.484 90.0567L662.599 85.4948L658.522 86.2713L656.096 84.4271L646.778 85.6889L645.322 83.9417L636.974 87.339L630.277 84.5241L628.433 82.2917L623.094 82.6799L619.503 80.8357L620.668 79.4768L616.106 78.0209H612.029L605.526 80.8357L604.264 78.8945L593.975 77.4385L590.481 68.7028L590.093 66.0821L585.628 64.8203L586.016 72.2942L574.174 73.1677L559.518 73.7501L558.547 73.8472Z" fill="#F9F9F9" stroke="black" stroke-width="0.970631" stroke-linejoin="round"/>
        <path id="Montana" d="M465.658 72.9739L433.53 70.8385L410.138 68.6061L386.843 65.8883L372.38 63.947L349.279 60.3557L337.729 58.4144L311.91 53.4642L309.192 52.8818L305.018 72.6827L306.863 76.274L308.318 81.8066L307.445 82.5832L309.289 87.6304L311.813 89.7658L318.995 101.802L319.675 103.84L322.587 103.646L319.19 119.564L317.831 119.952L315.986 125.291L325.596 125.97L326.372 130.435L331.808 143.733L332.778 144.509L336.564 152.274L337.534 151.498L345.591 151.401L355.782 152.469L358.306 149.168L361.315 154.604L361.897 154.895L361.994 154.313L363.353 144.801L396.549 148.877L423.047 151.401L437.024 152.566L461.969 154.022L463.231 154.119H463.522L463.62 152.76L463.911 146.062L464.299 137.23L464.396 134.997L464.59 131.115L466.143 100.637L467.405 76.9535L467.502 73.071L465.658 72.9739Z" fill="#F9F9F9" stroke="black" stroke-width="0.970631" stroke-linejoin="round"/>
        <path id="North Dakota" d="M556.509 73.8478L527.196 74.4302L506.715 74.3331L489.147 73.9449L468.57 73.1684L467.502 73.0713L467.405 76.9538L466.143 100.637L464.59 131.115L464.396 134.998L468.181 135.192L510.986 136.356L550.491 136.065L566.894 135.58L570.195 135.386L569.806 133.93L569.321 129.465L567.089 124.224L566.506 115.488L564.565 105.587L560.488 80.7393L558.547 73.8478L556.509 73.8478Z" fill="#F9F9F9" stroke="black" stroke-width="0.970631" stroke-linejoin="round"/>
        <g id="Hawaii">
            <path d="M416.35 514.999L413.341 512.766L410.72 513.446L411.302 518.881L407.711 523.346L410.817 530.432L411.691 537.712L415.282 540.041L417.514 536.45L421.494 533.538L426.347 532.276L431.686 527.714L426.444 523.249L426.347 520.532L416.35 514.999ZM398.684 507.137L397.228 505.875L395.869 507.719L398.684 507.137ZM391.404 502.963L391.793 499.372L389.948 499.081L391.404 502.963ZM397.519 497.042L395.869 497.819L397.034 501.507L399.558 501.701L400.334 504.904L403.052 506.069L409.07 503.254L403.44 498.595L397.519 497.042ZM385.095 493.063L384.222 495.683L388.395 495.586L392.278 496.557L390.24 493.354L385.095 493.063ZM372.865 485.395L370.633 483.259L366.362 486.559L369.08 491.607L371.021 489.568L376.554 490.733L376.068 488.404L372.865 485.395ZM329.381 481.124L329.963 479.765L331.614 478.891L329.381 481.124ZM344.814 472.291L338.02 474.815L337.34 476.659L340.058 478.6L343.844 479.571L346.561 474.232L344.814 472.291ZM297.739 454.432V454.334H297.544L297.739 454.432ZM246.295 441.716V441.91H246.392L246.295 441.716ZM217.37 434.339H217.176V434.437L217.37 434.339ZM187.475 409.2L187.378 408.909V409.006L187.475 409.2ZM120.987 387.943L120.695 388.234L120.889 388.332L120.987 387.943ZM11.1111 320.776L11.4023 320.678V320.484L11.1111 320.776Z" fill="#F9F9F9"/>
            <path d="M219.312 437.251L219.409 437.348M218.05 434.339H217.953V434.242M53.0424 339.023H52.9453M416.35 514.999L413.341 512.766L410.72 513.446L411.302 518.881L407.711 523.346L410.817 530.432L411.691 537.712L415.282 540.041L417.514 536.45L421.494 533.538L426.347 532.276L431.686 527.714L426.444 523.249L426.347 520.532L416.35 514.999ZM398.684 507.137L397.228 505.875L395.869 507.719L398.684 507.137ZM391.404 502.963L391.793 499.372L389.948 499.081L391.404 502.963ZM397.519 497.042L395.869 497.819L397.034 501.507L399.558 501.701L400.334 504.904L403.052 506.069L409.07 503.254L403.44 498.595L397.519 497.042ZM385.095 493.063L384.222 495.683L388.395 495.586L392.278 496.557L390.24 493.354L385.095 493.063ZM372.865 485.395L370.633 483.259L366.362 486.559L369.08 491.607L371.021 489.568L376.554 490.733L376.068 488.404L372.865 485.395ZM329.381 481.124L329.963 479.765L331.614 478.891L329.381 481.124ZM344.814 472.291L338.02 474.815L337.34 476.659L340.058 478.6L343.844 479.571L346.561 474.232L344.814 472.291ZM297.739 454.432V454.334H297.544L297.739 454.432ZM246.295 441.716V441.91H246.392L246.295 441.716ZM217.37 434.339H217.176V434.437L217.37 434.339ZM187.475 409.2L187.378 408.909V409.006L187.475 409.2ZM120.987 387.943L120.695 388.234L120.889 388.332L120.987 387.943ZM11.1111 320.776L11.4023 320.678V320.484L11.1111 320.776Z" stroke="black" stroke-width="0.970631" stroke-linejoin="round"/>
        </g>
        <path id="Idaho" d="M309.095 52.8818L300.456 51.1347L297.642 50.4552L296.38 50.1641L285.12 100.831L285.606 105.005L285.217 109.373L285.412 110.343V110.44L285.509 112.284L288.809 115.876L284.053 127.815L273.958 141.015L273.667 143.442L276.288 149.654L267.067 187.897L266.678 189.935L269.396 190.517L296.865 195.953L307.833 197.991L310.648 198.477L313.366 198.962L327.343 201.194L352.385 204.98L355.2 205.368L355.588 202.165L356.462 195.856L359.762 170.619L361.509 158.098L361.897 154.895L361.315 154.604L358.306 149.168L355.782 152.469L345.591 151.401L337.535 151.498L336.564 152.275L332.778 144.509L331.808 143.733L326.372 130.435L325.596 125.97L315.987 125.291L317.831 119.953L319.19 119.564L322.587 103.646L319.675 103.84L318.995 101.802L311.813 89.7659L309.289 87.6305L307.445 82.5832L308.319 81.8067L306.863 76.2741L305.018 72.6828L309.192 52.8819L309.095 52.8818Z" fill="#F9F9F9" stroke="black" stroke-width="0.970631" stroke-linejoin="round"/>
        <path id="Washington" d="M192.134 77.0505L192.231 75.4004L192.037 75.4975L192.134 77.0505ZM212.808 68.2178L213.391 67.2471L212.711 67.1501L212.808 68.2178ZM210.964 66.4706L211.547 64.5294L210.964 64.3352V66.4706ZM218.05 63.6558L217.953 61.7145L216.303 64.2382L218.05 63.6558ZM218.244 59.5791L218.535 57.6379L218.341 57.1526L218.244 59.5791ZM218.535 50.067L218.438 48.9993L218.05 48.9022L218.535 50.067ZM221.641 43.6608L220.768 43.5637L219.02 46.2815L221.641 43.6608ZM219.214 41.0401L219.7 40.6518L219.797 40.3606L219.214 41.0401ZM218.729 41.3313L218.438 39.39L217.564 41.0401L218.729 41.3313ZM218.244 38.6135L217.37 38.2253L218.05 39.1959L218.244 38.6135ZM221.156 40.2636V39.0018L220.865 39.4871L221.156 40.2636ZM222.029 39.0018L221.641 38.7106H221.544L222.029 39.0018ZM216.497 36.8664L216.011 36.4781L215.817 36.3811L216.497 36.8664ZM220.088 36.4781L217.467 37.1576L218.147 37.3517L220.088 36.4781ZM217.953 36.284L217.467 35.7016L217.37 35.7987L217.953 36.284ZM219.991 35.1192H219.603L220.088 35.3134L219.991 35.1192ZM200.967 84.9126L204.461 88.6981L203.879 95.9778L204.558 97.822L209.799 100.637L224.553 101.996L225.135 103.743L232.124 103.84L238.724 104.714L249.498 103.549L254.837 104.422L256.293 103.743L283.567 109.955L285.412 110.343L285.217 109.373L285.606 105.005L285.12 100.831L296.38 50.1641L294.827 49.8729L272.114 44.5344L252.313 39.4871L229.891 33.2751L223.194 31.625L224.747 40.0695L223.291 42.7873L220.67 41.4284L223.194 53.173L220.476 57.0555L219.214 60.6469V64.3353L213.488 68.3149L211.061 66.7618L208.732 67.9266L213.002 62.394L211.935 66.1795L214.361 63.5588L216.303 63.947L215.72 59.0939L216.982 59.288L219.603 53.4642L218.729 52.5906L215.332 56.9585L213.1 57.0555L215.526 54.3378L218.244 53.6583L217.273 48.7081L214.555 48.0287L213.197 45.6992L211.547 46.5727L202.617 42.6902L194.755 36.5752L192.619 42.4961L192.425 45.0197L194.075 49.4846L193.007 63.947L192.231 66.1795L196.599 66.5677L192.231 69.6737L194.56 70.8385L192.716 77.0505L191.843 72.1974L190.193 77.827L192.425 80.5448L194.852 80.3507L197.764 82.0978L199.219 84.9127L200.967 84.9126Z" fill="#F9F9F9" stroke="black" stroke-width="0.970631" stroke-linejoin="round"/>
        <path id="Arizona" d="M372.186 309.905L339.476 305.828L321.907 303.304L296.865 299.325L294.341 298.937V299.131L290.07 317.961L287.838 317.864L284.441 314.855L280.17 318.446L280.073 333.879L278.52 337.179V337.471V337.568L278.326 339.994L281.723 349.118L284.732 353.195L279.296 356.398L277.161 360.378L273.667 368.919L271.92 369.307L271.823 376.393L274.831 378.625L273.278 382.896L269.784 383.09L267.746 386.876L274.734 391.244L287.935 398.62L328.701 420.265L363.256 424.536H363.644L366.362 395.903L367.041 388.817L374.321 313.69L374.709 310.196L372.186 309.905Z" fill="#F9F9F9" stroke="black" stroke-width="0.970631" stroke-linejoin="round"/>
        <g id="California">
            <path d="M206.014 363.775L206.402 365.91V366.298L206.014 363.775ZM191.746 355.427L192.425 356.883L192.813 356.786L191.746 355.427ZM208.732 355.136L209.023 357.66L210.77 358.921L208.732 355.136ZM196.987 341.353L195.919 341.062L196.793 341.45L196.987 341.353ZM186.213 338.441L183.592 339.994L184.272 340.674L186.213 338.441ZM181.166 336.597L180.972 337.373L181.845 337.568L181.166 336.597ZM189.707 338.538L193.978 340.965L194.755 340.285L189.707 338.538ZM166.995 253.511L166.897 253.22V253.608L166.995 253.511ZM223 179.84L219.214 178.869L177.671 167.416L162.238 162.757V163.145L161.365 172.754L157.288 184.111L150.494 192.555L150.3 196.826L153.6 202.747L155.25 210.512L152.92 216.821L153.309 223.13L152.144 225.751L156.123 234.389L158.647 237.69L158.453 247.105L164.471 252.831L167.965 247.008L171.751 250.017L173.207 248.658L167.965 249.628L167.868 254.579L168.936 260.791L166.024 257.976L164.374 254.19L163.888 259.432L165.247 269.817L170.683 276.515L167.092 281.174L167.674 287.095L171.556 293.113L178.351 311.749L180.486 312.913L179.807 325.823L180.875 327.376L195.434 332.617L199.899 337.373L201.452 340.479L205.723 342.906L210.382 343.78L212.323 349.118L216.205 350.962L222.029 357.854L227.465 366.881L227.077 375.228L230.086 379.208L269.784 383.09L273.279 382.896L274.832 378.625L271.823 376.393L271.92 369.307L273.667 368.919L277.161 360.377L279.297 356.398L284.732 353.195L281.723 349.118L278.326 339.994L278.52 337.568V337.47L275.996 334.073L268.231 323.687L253.187 302.528L232.221 272.438L220.379 256.034L208.926 239.534L222.126 183.528L223 179.84Z" fill="#F9F9F9"/>
            <path d="M156.609 253.026L156.512 253.123M206.014 363.775L206.402 365.91V366.298L206.014 363.775ZM191.746 355.427L192.425 356.883L192.813 356.786L191.746 355.427ZM208.732 355.136L209.023 357.66L210.77 358.921L208.732 355.136ZM196.987 341.353L195.919 341.062L196.793 341.45L196.987 341.353ZM186.213 338.441L183.592 339.994L184.272 340.674L186.213 338.441ZM181.166 336.597L180.972 337.373L181.845 337.568L181.166 336.597ZM189.707 338.538L193.978 340.965L194.755 340.285L189.707 338.538ZM166.995 253.511L166.897 253.22V253.608L166.995 253.511ZM223 179.84L219.214 178.869L177.671 167.416L162.238 162.757V163.145L161.365 172.754L157.288 184.111L150.494 192.555L150.3 196.826L153.6 202.747L155.25 210.512L152.92 216.821L153.309 223.13L152.144 225.751L156.123 234.389L158.647 237.69L158.453 247.105L164.471 252.831L167.965 247.008L171.751 250.017L173.207 248.658L167.965 249.628L167.868 254.579L168.936 260.791L166.024 257.976L164.374 254.19L163.888 259.432L165.247 269.817L170.683 276.515L167.092 281.174L167.674 287.095L171.556 293.113L178.351 311.749L180.486 312.913L179.807 325.823L180.875 327.376L195.434 332.617L199.899 337.373L201.452 340.479L205.723 342.906L210.382 343.78L212.323 349.118L216.205 350.962L222.029 357.854L227.465 366.881L227.077 375.228L230.086 379.208L269.784 383.09L273.279 382.896L274.832 378.625L271.823 376.393L271.92 369.307L273.667 368.919L277.161 360.377L279.297 356.398L284.732 353.195L281.723 349.118L278.326 339.994L278.52 337.568V337.47L275.996 334.073L268.231 323.687L253.187 302.528L232.221 272.438L220.379 256.034L208.926 239.534L222.126 183.528L223 179.84Z" stroke="black" stroke-width="0.970631" stroke-linejoin="round"/>
        </g>
        <path id="Colorado" d="M489.632 255.549L490.02 236.525L485.361 236.331L461.678 235.457L459.349 235.36L457.407 235.263L428.579 233.419L409.361 231.866L385.386 229.536L383.057 229.245L382.766 231.769L377.524 282.339L375.68 300.004L374.904 307.672L374.709 310.196L377.718 310.487L426.638 314.758L448.186 316.117L469.637 317.087L472.743 317.184L474.684 317.281L478.761 317.379L480.702 317.476L486.817 317.67H488.37V315.729L489.438 264.382L489.535 258.655V256.811L489.632 255.549Z" fill="#F9F9F9" stroke="black" stroke-width="0.970631" stroke-linejoin="round"/>
        <path id="Nevada" d="M294.827 295.83L304.921 233.03L310.066 201.582L310.648 198.476L307.833 197.991L296.865 195.952L269.396 190.517L266.678 189.934L263.961 189.352L250.275 186.343L225.718 180.519L223 179.84L222.126 183.528L208.926 239.534L220.379 256.034L232.221 272.438L253.187 302.528L268.231 323.687L275.996 334.073L278.52 337.47V337.179L280.073 333.879L280.17 318.446L284.441 314.855L287.838 317.864L290.071 317.961L294.341 299.13V298.936L294.827 295.83Z" fill="#F9F9F9" stroke="black" stroke-width="0.970631" stroke-linejoin="round"/>
        <path id="New Mexico" d="M472.452 324.756L472.549 322.232L472.646 319.708L472.743 317.185L469.637 317.088L448.187 316.117L426.639 314.758L377.719 310.487L374.71 310.196L374.322 313.691L367.042 388.817L366.362 395.903L363.645 424.537L364.033 424.634L377.428 425.896L378.689 419.101L381.116 417.16L408.294 419.586H408.488L406.061 414.83L418.388 415.704L449.157 417.451L468.376 418.325L471.676 327.279L472.355 327.377L472.452 324.756Z" fill="#F9F9F9" stroke="black" stroke-width="0.970631" stroke-linejoin="round"/>
        <path id="Oregon" d="M162.238 162.757L177.671 167.416L219.214 178.869L223 179.84L225.718 180.519L250.275 186.343L263.961 189.352L266.678 189.934L267.067 187.896L276.288 149.653L273.667 143.441L273.958 141.015L284.053 127.814L288.809 115.875L285.509 112.284L285.411 110.44V110.343L283.567 109.954L256.293 103.742L254.837 104.422L249.498 103.548L238.724 104.713L232.124 103.839L225.135 103.742L224.553 101.995L209.799 100.636L204.558 97.8214L203.878 95.9772L204.461 88.6975L200.967 84.912L200.675 85.0091L199.996 85.4944L195.143 82.9708L192.231 83.8443L190.29 82.8737L188.251 91.2211L186.892 93.5506L180.874 108.207L179.127 116.263L178.06 116.361L172.43 129.755L168.645 135.482L167.286 136.453L163.791 143.247L163.112 150.43L160.977 156.836L162.238 162.66L162.238 162.757ZM197.764 83.0679L197.472 82.1943L197.375 82.8738L197.764 83.0679Z" fill="#F9F9F9" stroke="black" stroke-width="0.970631" stroke-linejoin="round"/>
        <path id="Utah" d="M352.385 204.98L327.343 201.194L313.366 198.962L310.648 198.477L310.066 201.583L304.921 233.031L294.827 295.831L294.341 298.937L296.865 299.325L321.907 303.305L339.476 305.828L372.186 309.905L374.71 310.196L374.904 307.673L375.68 300.005L377.524 282.339L382.766 231.769L383.057 229.246L381.116 229.051L356.365 226.042L352.579 225.557L355.006 206.63L355.2 205.368L352.385 204.98Z" fill="#F9F9F9" stroke="black" stroke-width="0.970631" stroke-linejoin="round"/>
        <path id="Wyoming" d="M461.387 192.168L462.163 177.026L463.134 156.643L463.231 154.119L461.969 154.022L437.024 152.566L423.047 151.401L396.549 148.877L363.353 144.801L361.994 154.313L361.897 154.895L361.509 158.098L359.762 170.62L356.462 195.856L355.588 202.165L355.2 205.368L355.006 206.63L352.579 225.557L356.365 226.043L381.116 229.052L383.057 229.246L385.386 229.537L409.361 231.866L428.579 233.419L457.407 235.264L459.349 235.361L459.446 232.837L459.931 222.645L460.805 204.883L461.193 197.312L461.29 194.788L461.387 192.168Z" fill="#F9F9F9" stroke="black" stroke-width="0.970631" stroke-linejoin="round"/>
        <path id="Arkansas" d="M690.456 328.055L679.973 329.608L684.244 322.814L682.4 319.028L645.419 322.62L614.164 325.143L609.602 325.435L610.185 328.152L613.97 347.759L614.067 352.127L615.135 378.528L615.232 382.896L615.523 382.993L616.979 384.546L622.803 384.352L623.385 392.893L623.579 395.32L626.588 395.029L635.809 394.349L672.402 390.952H672.596L672.499 388.817L673.47 388.137L671.723 384.837L675.411 369.307L673.955 367.56L679.488 361.445L679.1 356.204L683.176 349.409V349.312L682.982 349.118L686.476 345.915L685.506 342.032L688.224 337.762L687.641 333.782L690.553 328.152V328.055L690.456 328.055Z" fill="#F9F9F9" stroke="black" stroke-width="0.970631" stroke-linejoin="round"/>
        <path id="Iowa" d="M661.531 197.7L656.193 194.885L653.281 190.906L652.31 185.179L653.086 182.558L650.272 179.161L645.516 179.646L597.76 183.626L578.639 184.694L573.786 184.985L571.748 185.082L573.398 195.856L572.039 201L574.174 204.203V204.883L574.854 204.98L577.96 214.104L580.969 218.86L581.163 224.296L584.463 228.858L583.88 230.799L586.889 243.029V243.32L606.787 242.738L628.044 240.893L648.913 238.273L653.669 242.446L653.863 242.64L654.737 242.252L654.057 238.467L657.648 236.234L659.104 226.334L657.648 225.654L658.522 220.607L662.89 219.734L667.743 216.239L669.878 210.124L669.976 207.018L666.093 203.33L664.928 201L661.24 198.671L661.434 198.186L661.531 197.7Z" fill="#F9F9F9" stroke="black" stroke-width="0.970631" stroke-linejoin="round"/>
        <path id="Kansas" d="M608.923 312.72L606.496 271.662L602.128 269.138L601.74 267.197L598.246 264.091L601.643 259.917L600.284 257.491L597.761 257.588L595.431 255.938L594.46 255.161L591.16 255.355L555.344 256.714L538.94 257.102H506.327L493.224 256.908L489.535 256.811V258.655L489.438 264.382L488.37 315.728V317.67L492.544 317.767L515.063 318.058L567.768 317.282L605.331 315.534L609.02 315.243L608.923 312.72Z" fill="#F9F9F9" stroke="black" stroke-width="0.970631" stroke-linejoin="round"/>
        <path id="Missouri" d="M653.669 242.446L648.913 238.272L628.044 240.893L606.787 242.737L586.89 243.32L586.792 243.902L589.219 248.561L591.451 250.114L594.072 254.773L594.46 255.161L595.431 255.938L597.761 257.588L600.284 257.491L601.643 259.918L598.246 264.091L601.74 267.197L602.128 269.139L606.496 271.662L608.923 312.72L609.02 315.243L609.214 317.767L609.311 320.291L609.505 322.911L609.602 325.435L614.164 325.144L645.419 322.62L682.4 319.029L684.244 322.814L679.973 329.609L690.456 328.056H690.553V327.279L690.747 322.814L692.688 320.388L692.106 317.67L692.009 317.573L691.912 317.476L692.3 316.214L692.883 316.408L693.174 317.185L693.077 317.476V317.573V318.35L693.465 318.447L694.241 317.476V317.379L694.338 317.088L696.862 315.535L697.25 315.341L698.124 307.381L697.93 306.993L697.639 306.896L690.747 301.266L691.815 299.228L689.874 293.695L686.379 290.978L679.779 288.066L675.605 284.669L676.091 277.68L677.352 271.177L670.364 271.565L668.229 269.333L667.258 264.868L656.193 255.55L653.087 246.911L653.863 242.64L653.669 242.446Z" fill="#F9F9F9" stroke="black" stroke-width="0.970631" stroke-linejoin="round"/>
        <path id="Nebraska" d="M572.33 204.689L569.321 201.68L558.741 198.574L555.344 198.477L550.2 199.932L544.085 196.05L524.963 196.244L497.106 195.953L464.202 194.885L461.29 194.788L461.193 197.312L460.805 204.883L459.931 222.645L459.446 232.837L459.349 235.36L461.678 235.458L485.362 236.331L490.021 236.525L489.632 255.55L489.535 256.811L493.224 256.909L506.327 257.103H538.94L555.344 256.714L591.16 255.356L594.46 255.161L594.072 254.773L591.452 250.114L589.219 248.561L586.792 243.902L586.89 243.32V243.029L583.881 230.799L584.463 228.857L581.163 224.295L580.969 218.86L577.96 214.104L574.854 204.98L574.174 204.883L572.33 204.689Z" fill="#F9F9F9" stroke="black" stroke-width="0.970631" stroke-linejoin="round"/>
        <path id="Oklahoma" d="M609.505 322.911L609.311 320.29L609.214 317.767L609.02 315.243L605.332 315.534L567.768 317.281L515.063 318.058L492.544 317.767L488.371 317.67H486.818L480.703 317.476L478.761 317.378L474.685 317.281L472.743 317.184L472.646 319.708L472.549 322.232L472.452 324.755L472.355 327.376H472.937L496.427 327.958L521.275 328.249L521.566 361.445L523.313 367.269L527.196 370.957L531.369 371.151L532.243 369.404L537.97 374.646L545.444 375.422L546.802 376.975L549.52 375.713L556.315 378.916V380.761L558.838 380.664L561.459 378.431L566.312 381.537L570.874 383.187L573.98 378.916L583.88 383.575L587.569 380.566L590.578 379.402L593.004 379.984L602.128 377.363L606.982 379.402L611.349 382.217L615.135 382.896H615.232L615.135 378.528L614.067 352.127L613.97 347.759L610.185 328.152L609.602 325.435L609.505 322.911Z" fill="#F9F9F9" stroke="black" stroke-width="0.970631" stroke-linejoin="round"/>
        <path id="South Dakota" d="M566.895 135.579L550.491 136.065L510.986 136.356L468.181 135.191L464.396 134.997L464.299 137.23L463.911 146.062L463.619 152.76L463.522 154.118H463.231L463.134 156.642L462.163 177.025L461.387 192.167L461.29 194.788L464.202 194.885L497.106 195.953L524.963 196.244L544.085 196.05L550.2 199.932L555.344 198.476L558.741 198.574L569.321 201.68L572.33 204.688L574.174 204.883V204.203L572.039 201L573.398 195.856L571.748 185.082L573.786 184.985L573.592 180.52L568.739 146.354L566.215 142.083L570.098 135.677L570.195 135.385L566.895 135.579Z" fill="#F9F9F9" stroke="black" stroke-width="0.970631" stroke-linejoin="round"/>
        <path id="Louisiana" d="M689 469.282L687.738 469.573L687.156 470.156L689 469.282ZM693.077 469.282L692.397 468.991L692.203 469.282H693.077ZM695.406 468.506H694.727L694.338 468.991L695.406 468.506ZM694.241 467.826L694.047 467.535L693.95 467.826H694.241ZM702.006 462.682L701.715 462.876H702.201L702.006 462.682ZM715.595 456.955L716.178 456.179L715.498 457.052L715.595 456.955ZM717.536 454.431L717.342 454.529V454.626L717.536 454.431ZM667.646 462.973L669.102 461.129L665.122 460.061L663.375 461.517L667.646 462.973ZM707.927 454.529L707.539 454.14L707.442 454.334L707.927 454.529ZM708.995 452.781L708.024 452.49L708.315 453.461L708.995 452.781ZM716.954 451.131V450.84V450.937V451.131ZM718.895 449.869L718.798 449.772L718.895 449.967V449.869ZM718.119 449.675L717.925 449.578L717.828 449.869L718.119 449.675ZM711.324 449.384L712.198 449.093V448.802L711.324 449.384ZM711.81 448.899L712.295 448.414L712.198 448.316L711.81 448.899ZM708.413 445.308L708.218 445.502H708.315L708.413 445.308ZM672.596 390.952H672.402L635.809 394.349L626.588 395.029L623.579 395.32L623.676 397.65L625.618 416.383L628.821 420.848L628.918 423.468L632.024 428.904L634.548 436.863L633.674 441.328L632.995 452.393L631.539 455.984H631.733L632.024 458.508L630.374 460.838L642.41 459.479L651.825 462.099L658.522 462.973L661.919 460.546L660.075 458.12L666.287 456.179L666.093 458.314L669.296 457.537L671.917 461.614L674.149 460.838L679.973 464.817L676.382 466.079L684.632 468.506H687.738L689.582 466.273L693.562 464.138L696.377 468.214L698.318 464.526L697.736 458.702L702.977 460.741L703.559 462.488L709.771 463.264L712.878 465.788L712.489 467.826L716.857 463.75L715.207 461.614L707.927 459.77L705.21 458.217L705.112 455.305L708.121 455.693L710.451 450.937L707.442 446.763L705.792 450.743L702.006 450.064L704.627 445.793L702.88 445.308L698.609 448.316L692.494 448.705L690.747 447.346L693.562 442.396L696.862 442.299L702.492 444.143L706.568 444.531L704.336 441.716L700.065 433.369L701.23 428.71L667.743 432.398L669.005 431.136L667.646 427.642L669.684 424.633L670.849 417.062L678.226 404.444L674.635 400.076L674.829 396.873L672.596 391.632L672.596 390.952Z" fill="#F9F9F9" stroke="black" stroke-width="0.970631" stroke-linejoin="round"/>
        <path id="Texas" d="M573.98 536.936L569.321 519.367V522.667L573.98 536.936ZM572.913 506.07L569.612 512.282L569.224 514.32L572.913 506.07ZM575.533 501.508L578.639 497.431L576.407 498.79L575.533 501.508ZM586.501 491.607L579.222 495.393L581.26 495.004L586.501 491.607ZM587.472 490.248L589.51 488.598L588.734 488.792L587.472 490.248ZM472.355 327.376L471.676 327.279L468.376 418.324L449.157 417.451L418.388 415.704L406.061 414.83L408.488 419.586L408.585 419.683L419.068 430.166L425.085 437.252L433.045 443.173L438.674 453.461L440.81 464.235L445.372 467.244L448.963 471.224L454.107 473.068L461.581 477.824L464.978 479.086L469.637 474.427L471.093 469.477L473.52 464.721L481.091 461.712L484.003 463.168L492.447 463.847L500.115 468.603L505.357 469.574L503.901 472.292L506.91 474.233L509.724 477.63L510.307 481.221L512.151 483.648L516.422 493.937L520.693 497.528L523.993 502.964L528.166 507.234L530.011 507.817L531.564 518.882L536.126 521.406L536.32 524.9L537.484 524.609L545.444 534.315L549.423 535.189L554.471 538.198H562.236L567.865 541.304L574.563 539.848L571.554 537.033L568.836 528.879L567.768 521.794L566.215 519.464L566.895 514.708L564.856 514.514L562.139 510.049L565.245 513.349L568.836 512.088L570.777 506.943L566.895 501.702L572.718 502.381L575.436 498.207L575.048 496.752L577.475 493.548L576.892 496.363L579.61 494.228L578.542 490.442L582.036 492.287L586.501 489.763L582.134 485.201L584.851 486.269L589.899 486.56L596.499 485.104L603.876 480.154L608.341 476.465L609.02 473.748L611.738 470.933L610.282 466.274L610.573 463.362L615.426 461.226L615.038 466.371H617.95L614.747 469.089L627.656 462.294L629.792 462.197L631.15 455.985H631.539L632.995 452.394L633.674 441.328L634.548 436.864L632.024 428.904L628.918 423.469L628.821 420.848L625.618 416.383L623.677 397.65L623.579 395.321L623.385 392.894L622.803 384.352L616.979 384.547L615.523 382.994L615.232 382.896H615.135L611.349 382.217L606.982 379.402L602.128 377.364L593.005 379.985L590.578 379.402L587.569 380.567L583.881 383.576L573.98 378.917L570.874 383.188L566.312 381.538L561.459 378.432L558.838 380.664L556.315 380.761V378.917L549.52 375.714L546.802 376.976L545.444 375.423L537.97 374.646L532.243 369.405L531.369 371.152L527.196 370.958L523.313 367.269L521.566 361.446L521.275 328.25L496.427 327.959L472.937 327.376L472.355 327.376Z" fill="#F9F9F9" stroke="black" stroke-width="0.970631" stroke-linejoin="round"/>
        <path id="Connecticut" d="M936.996 143.345L923.019 148.683L922.825 148.198L914.963 150.527L913.216 151.013L913.41 151.983L917.098 166.252L918.263 167.708L915.739 170.814L917.487 172.464L923.116 167.028L926.125 162.854L926.708 164.019L940.879 157.71L941.17 157.419L941.073 155.089L940.491 153.051L937.482 144.607L937.093 143.539L936.996 143.345Z" fill="#F9F9F9" stroke="black" stroke-width="0.970631" stroke-linejoin="round"/>
        <path id="New Hampshire" d="M923.893 75.9824L922.631 77.5354L921.175 77.2442L920.398 83.6504V83.7475L922.728 92.4832L922.534 94.2303L918.36 99.7629L919.428 104.81V111.119L918.651 116.943L923.019 132.861L926.999 131.6L939.229 127.523L944.761 121.505V119.952L945.052 117.428L944.373 117.72L944.276 117.137L938.161 109.663L937.967 108.984L923.893 75.9824Z" fill="#F9F9F9" stroke="black" stroke-width="0.970631" stroke-linejoin="round"/>
        <path id="Rhode Island" d="M946.508 152.081L946.411 150.042L946.12 150.819L946.508 152.081ZM948.45 150.528L947.188 148.101L947.091 150.625L948.45 150.528ZM947.867 147.519L948.547 149.266L949.42 150.819L950.003 149.654L949.129 148.004L948.838 146.839H947.867V147.519ZM937.093 143.539L937.482 144.607L940.49 153.051L941.073 155.09L941.17 157.419L941.364 157.128L946.023 153.44L945.15 146.839L947.091 146.451L942.82 141.307L938.355 143.054L937.093 143.539Z" fill="#F9F9F9" stroke="black" stroke-width="0.970631" stroke-linejoin="round"/>
        <path id="Vermont" d="M923.019 132.862L918.651 116.944L919.428 111.12V104.811L918.36 99.7635L922.534 94.2309L922.728 92.4837L920.398 83.748L919.136 84.2334L913.798 86.1746L908.557 88.213L896.521 92.5808L895.841 92.7749L900.209 102.967L901.665 112.576L906.809 120.632L911.663 136.55L911.857 136.453L912.633 136.162L914.866 135.483L916.807 134.803L922.34 133.153L923.019 132.862Z" fill="#F9F9F9" stroke="black" stroke-width="0.970631" stroke-linejoin="round"/>
        <path id="Alabama" d="M718.313 344.848L718.701 345.624L720.06 346.498L720.642 386.294L720.837 408.133L725.787 438.028L726.175 437.931L730.543 438.805L731.708 430.166L733.649 435.019L736.949 438.028L743.258 434.34L742.579 433.757L742.773 433.854L738.405 423.857L780.336 417.063L783.151 416.577V416.48L780.53 411.53L780.336 404.444L778.201 400.562L779.269 392.991L781.016 391.05L773.833 378.237L760.827 338.636L760.729 338.441L757.818 338.927L742.287 341.45L734.522 342.421L718.216 344.653L718.313 344.848Z" fill="#F9F9F9" stroke="black" stroke-width="0.970631" stroke-linejoin="round"/>
        <g id="Florida">
            <path d="M854.687 535.286H854.493L854.59 535.383L854.687 535.286ZM853.813 535.189V535.286H853.91L853.813 535.189ZM839.739 536.645H839.642V536.742L839.739 536.645ZM867.305 530.53H867.208L867.305 530.724V530.53ZM869.926 529.85V529.656L869.732 529.947L869.926 529.85ZM868.955 529.656L868.567 529.268L868.47 529.365L868.955 529.656ZM868.664 530.432L867.499 528.977L868.179 530.238L868.664 530.432ZM877.885 524.706V525.094L878.079 524.9L877.885 524.706ZM879.244 523.735L879.535 523.25L879.147 523.638L879.244 523.735ZM879.535 522.765H879.438V522.862L879.535 522.765ZM878.661 521.017L878.564 520.92V521.114L878.661 521.017ZM879.341 518.688L879.147 518.785L879.438 518.882L879.341 518.688ZM879.729 518.688L879.535 518.494L879.632 518.785L879.729 518.688ZM879.05 518.494L878.953 518.397V518.591L879.05 518.494ZM882.641 517.814V517.717L882.447 518.105L882.641 517.814ZM878.564 518.203H878.37L878.564 518.3V518.203ZM880.603 517.038H880.312L880.214 517.135L880.603 517.038ZM873.226 516.941V516.747L873.129 516.941H873.226ZM874.099 516.65H873.808L874.099 517.232V516.65ZM871.77 516.747V516.164L871.285 516.261L871.77 516.747ZM870.411 515.776L870.896 516.261V516.067L870.411 515.776ZM884.679 516.358L882.932 517.135L883.515 517.232L884.679 516.358ZM871.091 515.485H870.508V515.679L871.091 515.485ZM886.427 510.632L886.524 510.146L886.621 508.884L886.427 510.632ZM886.524 505.196L886.135 504.225L885.941 504.614L886.524 505.196ZM864.102 507.623L863.908 507.914L864.393 508.011L864.102 507.623ZM862.258 506.749L861.384 507.04L862.064 507.137L862.258 506.749ZM860.317 506.943V506.652L860.219 506.749L860.317 506.943ZM858.278 506.846L857.696 507.234L858.472 507.623L858.278 506.846ZM860.996 506.943L860.899 506.652L860.414 506.555L860.996 506.943ZM848.281 497.431L847.698 497.722L848.863 498.111L848.281 497.431ZM845.951 494.325L845.175 493.16L845.466 494.034L845.951 494.325ZM848.96 496.266L847.601 493.16L846.631 492.869L848.96 496.266ZM845.078 492.384L844.786 491.607L844.592 491.122L845.078 492.384ZM837.021 481.61L835.274 480.348L835.954 481.027L837.021 481.61ZM880.7 475.107L873.614 463.265H873.226L880.7 475.107ZM831.683 456.179L831.392 456.082L831.683 456.276V456.179ZM831.101 455.5L831.003 455.597L831.101 455.694V455.5ZM830.421 454.529V454.432L830.324 454.529H830.421ZM830.809 454.141L831.101 454.335V454.141H830.809ZM831.392 453.753L831.003 453.85H831.101L831.392 453.753ZM830.712 453.656L830.421 453.364L830.518 453.461L830.712 453.656ZM830.033 452.588H829.839L830.13 452.685L830.033 452.588ZM830.712 451.423H830.324L830.227 451.52L830.712 451.423ZM831.101 451.617L830.615 451.132L830.809 451.229L831.101 451.617ZM827.412 447.444L827.218 447.346V447.444H827.412ZM823.238 447.444L822.947 447.055L823.044 447.541L823.238 447.444ZM787.907 444.24L790.819 442.008L787.616 444.143L787.907 444.24ZM793.731 439.581L794.022 439.29L792.858 439.776L793.731 439.581ZM756.847 433.078L746.267 436.475L752.091 434.825L756.847 433.078ZM783.151 416.577L780.337 417.063L738.405 423.857L742.773 433.855L743.064 433.952L741.997 437.931L745.103 436.572L748.5 433.564L754.324 433.369L761.021 430.943L765.583 431.622L764.515 433.272L772.863 436.087L780.045 439.581L781.695 443.464L787.034 442.299L799.652 432.01L804.311 432.205L823.336 446.57L827.218 445.793L831.295 451.229L832.071 459.868L830.809 465.303L831.392 468.021L834.789 474.815L833.236 469.477L837.604 469.38L837.992 473.262L835.663 479.28L843.719 490.345L846.728 490.443L844.204 487.045L847.31 487.434L849.154 486.269L848.378 492.481L852.552 495.781L855.366 503.352L859.152 505.681L864.005 506.943L870.702 515.485L874.197 517.329L869.538 517.62L871.673 520.047L879.341 517.523L883.126 515.388L886.621 503.158L884.874 484.133L884.485 482.192L875.167 466.662L867.208 455.403L862.743 446.182L866.529 449.385L867.305 448.802L868.955 456.859L873.226 462.974L869.052 454.82L869.246 450.938L856.725 435.699L853.716 430.943L849.737 422.887L847.019 416.092L844.884 413.666L844.398 410.56L844.301 410.462L837.604 410.074L834.983 412.113L833.527 419.586L832.168 416.092L786.354 421.819L783.054 416.674L783.151 416.577Z" fill="#F9F9F9"/>
            <path d="M854.007 535.092V534.994M840.807 536.547V536.645M840.613 536.645V536.547M877.788 522.473L877.691 522.376M876.041 520.92L875.944 520.823M881.379 516.552H881.282M854.687 535.286H854.493L854.59 535.383L854.687 535.286ZM853.813 535.189V535.286H853.91L853.813 535.189ZM839.739 536.645H839.642V536.742L839.739 536.645ZM867.305 530.53H867.208L867.305 530.724V530.53ZM869.926 529.85V529.656L869.732 529.947L869.926 529.85ZM868.955 529.656L868.567 529.268L868.47 529.365L868.955 529.656ZM868.664 530.432L867.499 528.977L868.179 530.238L868.664 530.432ZM877.885 524.706V525.094L878.079 524.9L877.885 524.706ZM879.244 523.735L879.535 523.25L879.147 523.638L879.244 523.735ZM879.535 522.765H879.438V522.862L879.535 522.765ZM878.661 521.017L878.564 520.92V521.114L878.661 521.017ZM879.341 518.688L879.147 518.785L879.438 518.882L879.341 518.688ZM879.729 518.688L879.535 518.494L879.632 518.785L879.729 518.688ZM879.05 518.494L878.953 518.397V518.591L879.05 518.494ZM882.641 517.814V517.717L882.447 518.105L882.641 517.814ZM878.564 518.203H878.37L878.564 518.3V518.203ZM880.603 517.038H880.312L880.214 517.135L880.603 517.038ZM873.226 516.941V516.747L873.129 516.941H873.226ZM874.099 516.65H873.808L874.099 517.232V516.65ZM871.77 516.747V516.164L871.285 516.261L871.77 516.747ZM870.411 515.776L870.896 516.261V516.067L870.411 515.776ZM884.679 516.358L882.932 517.135L883.515 517.232L884.679 516.358ZM871.091 515.485H870.508V515.679L871.091 515.485ZM886.427 510.632L886.524 510.146L886.621 508.884L886.427 510.632ZM886.524 505.196L886.135 504.225L885.941 504.614L886.524 505.196ZM864.102 507.623L863.908 507.914L864.393 508.011L864.102 507.623ZM862.258 506.749L861.384 507.04L862.064 507.137L862.258 506.749ZM860.317 506.943V506.652L860.219 506.749L860.317 506.943ZM858.278 506.846L857.696 507.234L858.472 507.623L858.278 506.846ZM860.996 506.943L860.899 506.652L860.414 506.555L860.996 506.943ZM848.281 497.431L847.698 497.722L848.863 498.111L848.281 497.431ZM845.951 494.325L845.175 493.16L845.466 494.034L845.951 494.325ZM848.96 496.266L847.601 493.16L846.631 492.869L848.96 496.266ZM845.078 492.384L844.786 491.607L844.592 491.122L845.078 492.384ZM837.021 481.61L835.274 480.348L835.954 481.027L837.021 481.61ZM880.7 475.107L873.614 463.265H873.226L880.7 475.107ZM831.683 456.179L831.392 456.082L831.683 456.276V456.179ZM831.101 455.5L831.003 455.597L831.101 455.694V455.5ZM830.421 454.529V454.432L830.324 454.529H830.421ZM830.809 454.141L831.101 454.335V454.141H830.809ZM831.392 453.753L831.003 453.85H831.101L831.392 453.753ZM830.712 453.656L830.421 453.364L830.518 453.461L830.712 453.656ZM830.033 452.588H829.839L830.13 452.685L830.033 452.588ZM830.712 451.423H830.324L830.227 451.52L830.712 451.423ZM831.101 451.617L830.615 451.132L830.809 451.229L831.101 451.617ZM827.412 447.444L827.218 447.346V447.444H827.412ZM823.238 447.444L822.947 447.055L823.044 447.541L823.238 447.444ZM787.907 444.24L790.819 442.008L787.616 444.143L787.907 444.24ZM793.731 439.581L794.022 439.29L792.858 439.776L793.731 439.581ZM756.847 433.078L746.267 436.475L752.091 434.825L756.847 433.078ZM783.151 416.577L780.337 417.063L738.405 423.857L742.773 433.855L743.064 433.952L741.997 437.931L745.103 436.572L748.5 433.564L754.324 433.369L761.021 430.943L765.583 431.622L764.515 433.272L772.863 436.087L780.045 439.581L781.695 443.464L787.034 442.299L799.652 432.01L804.311 432.205L823.336 446.57L827.218 445.793L831.295 451.229L832.071 459.868L830.809 465.303L831.392 468.021L834.789 474.815L833.236 469.477L837.604 469.38L837.992 473.262L835.663 479.28L843.719 490.345L846.728 490.443L844.204 487.045L847.31 487.434L849.154 486.269L848.378 492.481L852.552 495.781L855.366 503.352L859.152 505.681L864.005 506.943L870.702 515.485L874.197 517.329L869.538 517.62L871.673 520.047L879.341 517.523L883.126 515.388L886.621 503.158L884.874 484.133L884.485 482.192L875.167 466.662L867.208 455.403L862.743 446.182L866.529 449.385L867.305 448.802L868.955 456.859L873.226 462.974L869.052 454.82L869.246 450.938L856.725 435.699L853.716 430.943L849.737 422.887L847.019 416.092L844.884 413.666L844.398 410.56L844.301 410.462L837.604 410.074L834.983 412.113L833.527 419.586L832.168 416.092L786.354 421.819L783.054 416.674L783.151 416.577Z" stroke="black" stroke-width="0.970631" stroke-linejoin="round"/>
        </g>
        <path id="Georgia" d="M845.854 396.097L845.757 393.185L845.077 395.709L845.854 396.097ZM846.922 391.632L846.533 389.4L846.242 390.759L846.922 391.632ZM801.496 330.482L800.234 330.774L796.546 331.55L782.957 334.365L781.695 334.656L780.336 334.85L772.765 336.306L770.727 336.694L762.477 338.247L760.729 338.442L760.827 338.636L773.833 378.237L781.016 391.05L779.269 392.991L778.201 400.562L780.336 404.445L780.53 411.53L783.151 416.48V416.577L783.054 416.675L786.354 421.819L832.168 416.092L833.527 419.586L834.983 412.113L837.603 410.074L844.301 410.462L843.718 399.98L844.98 397.747L844.301 393.574L845.66 389.594L847.698 387.361L846.242 386.003L849.639 381.829H849.542L843.718 376.393L835.759 365.037L831.391 362.999L812.658 347.274L808.096 341.451L799.263 337.762L798.778 335.821L801.496 330.482Z" fill="#F9F9F9" stroke="black" stroke-width="0.970631" stroke-linejoin="round"/>
        <path id="Mississippi" d="M716.76 442.784L716.275 442.882V442.979L716.76 442.784ZM725.787 441.62H724.428L725.69 441.717L725.787 441.62ZM714.527 442.59L714.139 442.979L714.236 443.076L714.527 442.59ZM723.651 441.814H719.963L723.457 441.911L723.651 441.814ZM683.176 349.313V349.41L679.099 356.204L679.488 361.446L673.955 367.561L675.411 369.308L671.723 384.838L673.47 388.138L672.499 388.817L672.596 390.953V391.632L674.829 396.874L674.635 400.077L678.226 404.444L670.849 417.063L669.684 424.634L667.646 427.643L669.005 431.137L667.743 432.399L701.23 428.71L700.065 433.369L704.336 441.717L706.568 444.532V444.434L710.16 440.358L717.731 438.708L724.719 439.484L725.787 438.125V438.028L720.837 408.133L720.642 386.294L720.06 346.498L718.701 345.624L718.313 344.848H718.119L713.266 345.527L704.724 346.692L685.311 349.118L683.176 349.313Z" fill="#F9F9F9" stroke="black" stroke-width="0.970631" stroke-linejoin="round"/>
        <path id="South Carolina" d="M801.496 330.483L798.778 335.821L799.264 337.762L808.096 341.451L812.658 347.275L831.392 362.999L835.759 365.037L843.719 376.393L849.542 381.829L850.513 377.364L848.96 373.093L853.134 376.199L855.463 374.355L851.484 371.055L856.337 370.764L863.908 364.358L863.034 362.708L867.693 359.116L867.208 357.369L870.605 355.234L870.799 350.284L876.138 340.383L879.729 335.821L880.117 335.627L858.472 321.941L850.416 323.494L839.448 323.106L834.012 320.291L801.787 330.483H801.496Z" fill="#F9F9F9" stroke="black" stroke-width="0.970631" stroke-linejoin="round"/>
        <path id="Illinois" d="M661.434 198.185L661.24 198.67L664.928 201L666.093 203.329L669.975 207.018L669.878 210.124L667.743 216.239L662.89 219.733L658.522 220.606L657.648 225.654L659.104 226.333L657.648 236.234L654.057 238.466L654.737 242.251L653.863 242.64L653.086 246.91L656.192 255.549L667.258 264.867L668.228 269.332L670.364 271.564L677.352 271.176L676.09 277.679L675.605 284.668L679.779 288.065L686.379 290.977L689.873 293.695L691.815 299.227L690.747 301.266L697.638 306.895L697.93 306.993L697.347 306.41L699.288 301.848L706.762 303.887L708.607 301.751L707.151 297.48L713.266 293.889L711.615 291.56L713.071 288.259V287.968L712.683 287.871L712.78 279.232L714.916 277.679L718.604 269.041L717.828 265.255L715.401 260.693L716.76 255.549L709.965 207.697L708.995 206.629L706.471 200.903L704.433 198.767L703.559 193.137V192.943L690.456 194.788L682.594 195.758L661.434 198.185Z" fill="#F9F9F9" stroke="black" stroke-width="0.970631" stroke-linejoin="round"/>
        <path id="Indiana" d="M750.344 200.224L735.493 202.844L732.096 203.524L720.06 205.465L717.536 207.503L713.751 209.251L712.295 209.153L710.548 208.28L709.966 207.698L716.76 255.55L715.401 260.694L717.828 265.256L718.604 269.041L714.916 277.68L712.78 279.233L712.683 287.872L713.072 287.969L713.46 287.872L714.916 285.154H718.507L722.875 283.698L728.31 285.736L728.893 283.504L731.999 281.174L736.658 281.854L739.182 276.904L746.073 277.486L745.976 274.671L752.091 266.615L751.12 262.926L755.391 262.829L760.632 258.656L759.371 253.9L759.565 253.705L759.371 252.055L753.547 217.695L750.926 203.038L750.635 201.485L750.344 200.224Z" fill="#F9F9F9" stroke="black" stroke-width="0.970631" stroke-linejoin="round"/>
        <path id="Kentucky" d="M693.174 317.185L692.883 316.408L692.3 316.214L691.912 317.476L692.009 317.573L693.077 317.476L693.174 317.185ZM759.565 253.706L759.371 253.9L760.633 258.656L755.391 262.829L751.12 262.927L752.091 266.615L745.976 274.671L746.073 277.486L739.182 276.904L736.658 281.854L731.999 281.174L728.893 283.504L728.311 285.736L722.875 283.698L718.507 285.154H714.916L713.46 287.872L713.072 287.969V288.26L711.616 291.56L713.266 293.89L707.151 297.481L708.607 301.752L706.763 303.887L699.289 301.849L697.347 306.411L697.93 306.993L698.124 307.382L697.25 315.341L696.862 315.535L694.338 317.088L694.241 317.379L697.056 316.991L716.663 314.37L715.692 310.488L718.992 310.39L758.497 305.149L786.257 300.49L786.645 300.199L787.325 299.422L794.605 295.54L800.234 288.163L801.011 285.639L804.699 282.727L809.358 276.807L810.038 275.836L809.746 275.739H807.32L804.214 273.992L798.681 267.294L796.74 260.5V260.306L796.546 260.112L792.469 257.782L790.625 254.676L786.937 258.268L784.607 258.85L781.695 257.685L779.172 259.626L773.93 257.297L772.571 257.879L767.621 253.608L765.097 252.347L760.341 252.929L759.565 253.706Z" fill="#F9F9F9" stroke="black" stroke-width="0.970631" stroke-linejoin="round"/>
        <path id="North Carolina" d="M890.212 332.23L889.144 333.297L889.338 333.492L890.212 332.23ZM890.988 326.6L890.503 327.377L890.697 328.153L890.988 326.6ZM896.812 317.573L895.356 318.544L894.58 319.709L896.812 317.573ZM909.333 311.458L908.751 311.07L907.489 310.973L909.333 311.458ZM906.712 310.876H905.839L904.383 311.652L906.712 310.876ZM909.721 311.944L912.536 304.955L910.595 307.867L909.721 311.944ZM913.895 302.723L915.157 300.878H914.478L913.895 302.723ZM922.048 295.152L919.913 284.378L921.757 290.007L922.048 295.152ZM910.207 270.595L910.013 270.692L909.721 270.789H909.819L915.157 279.816L919.331 283.99L910.207 270.595ZM908.46 271.177L907.683 271.371L907.877 271.468H909.527L909.333 270.886L909.042 270.983H908.751V271.177L908.557 271.274L908.46 271.177ZM818.676 293.307L818.191 294.763L818.288 298.937L817.22 298.84L814.697 303.984L811.882 304.276L806.64 309.42L804.311 308.546L801.302 313.011L793.343 320.194L789.46 321.165L785.384 324.95L785.189 327.474L781.598 329.415L781.695 333.686V334.656L782.957 334.365L796.546 331.55L800.234 330.774L801.496 330.483H801.787L834.012 320.291L839.448 323.106L850.416 323.494L858.472 321.941L880.117 335.627L880.505 335.336L890.503 331.259L890.6 325.921L894.191 319.417L898.074 315.729L906.13 310.391L907.198 308.449L909.333 309.42L910.304 303.014L909.139 305.246L905.062 306.605L901.18 306.702L905.936 303.208L904.48 301.655L906.13 298.161L897.006 296.705L896.618 296.219L904.383 294.763L906.907 296.025L910.11 295.734L912.73 293.793L914.672 290.007L916.419 289.522L916.128 284.184L913.895 282.048L911.663 284.086L912.148 289.231L910.498 282.922L909.236 282.631L899.627 286.61L903.898 282.436L904.092 280.786L908.557 279.719L909.819 276.419L912.828 278.166L909.624 273.41L907.392 271.468L868.567 282.533L843.816 288.843L818.773 293.502L818.676 293.307Z" fill="#F9F9F9" stroke="black" stroke-width="0.970631" stroke-linejoin="round"/>
        <path id="Ohio" d="M818.191 206.629L815.764 196.146L815.279 194.011L812.561 182.072L809.067 184.305L801.593 190.031L796.74 195.952L792.955 196.535L785.966 200.514L782.083 198.185L770.339 196.826L764.127 198.379L758.012 199.835L751.606 201.194L750.635 201.485L750.926 203.038L753.547 217.694L759.371 252.055L759.565 253.705L760.341 252.928L765.097 252.346L767.621 253.608L772.571 257.879L773.93 257.296L779.172 259.626L781.695 257.684L784.607 258.849L786.937 258.267L790.625 254.675L792.469 257.781L796.546 260.111L796.74 260.305L800.914 258.267L802.37 255.064L801.205 251.764L804.505 246.716L806.932 246.328L806.64 242.057L810.62 236.622L811.299 237.398L814.891 234.68L817.997 230.021L818.482 208.765L818.676 208.668L818.191 206.629Z" fill="#F9F9F9" stroke="black" stroke-width="0.970631" stroke-linejoin="round"/>
        <path id="Tennessee" d="M786.257 300.49L758.497 305.149L718.992 310.391L715.692 310.488L716.663 314.37L697.056 316.991L694.241 317.379V317.476L693.465 318.447L693.076 318.35V317.573V317.476L692.009 317.573L692.106 317.67L692.688 320.388L690.747 322.815L690.553 327.28V328.056V328.153L687.641 333.783L688.223 337.763L685.506 342.033L686.476 345.916L682.982 349.119L683.176 349.313L685.311 349.119L704.724 346.692L713.266 345.528L718.119 344.848H718.313L718.216 344.654L734.522 342.422L742.287 341.451L757.818 338.927L760.729 338.442L762.477 338.248L770.727 336.695L772.765 336.307L780.336 334.851L781.695 334.656V333.686L781.598 329.415L785.189 327.474L785.383 324.95L789.46 321.165L793.343 320.194L801.302 313.011L804.311 308.547L806.64 309.42L811.882 304.276L814.697 303.985L817.22 298.84L818.288 298.937L818.191 294.764L818.676 293.308L817.123 293.599L811.59 295.152L804.99 296.511L788.392 299.908L786.645 300.199L786.257 300.49Z" fill="#F9F9F9" stroke="black" stroke-width="0.970631" stroke-linejoin="round"/>
        <g id="Virginia">
            <path d="M908.751 270.983H909.042L909.333 270.886L909.139 270.401L908.751 270.983ZM905.451 260.112V260.597L905.936 260.306L905.451 260.112ZM906.615 257.879L906.421 259.141L906.13 259.627L906.615 257.879ZM907.489 255.356L907.586 254.773L907.392 255.356H907.489ZM908.071 252.735L908.363 252.056L907.877 253.803L908.071 252.735ZM908.169 251.279L908.557 249.144L908.071 249.629L908.169 251.279ZM909.916 241.67L910.11 240.796L910.013 240.99L909.916 241.67ZM909.527 239.437L908.266 239.923L906.324 240.796L905.645 241.67L905.936 241.767L903.607 256.229L904.48 258.559L905.839 252.541L908.363 244.679L909.527 239.535V239.437ZM911.469 238.661L911.177 238.758L911.08 239.146L910.595 242.155L910.983 241.088L911.469 238.661ZM810.038 275.836L809.358 276.807L804.699 282.728L801.011 285.639L800.234 288.163L794.605 295.54L787.325 299.422L786.646 300.199L788.393 299.908L804.99 296.511L811.591 295.152L817.123 293.599L818.676 293.307L818.773 293.502L843.816 288.843L868.567 282.533L907.392 271.468L907.101 270.983L907.004 270.692L907.683 271.371L908.46 271.177L908.363 271.08L907.683 267.78L908.168 267.877L909.721 270.789L910.013 270.692L910.207 270.595L909.819 269.818L905.839 263.703L900.889 264.577L898.656 266.421L896.521 264.48L889.241 262.053L884.194 261.859L893.997 260.985L899.433 264.674L900.986 262.247L896.618 256.715L899.724 256.909L898.074 252.444L894.191 252.638L884.97 245.164H883.806L896.812 251.57L895.939 247.105L896.812 245.649L890.212 243.126L884.485 242.738L881.67 240.214L879.341 241.67L878.467 234.972L879.438 235.167L879.244 229.731L879.05 229.537L878.855 229.634L878.661 229.537L878.176 229.149L877.885 228.857L874.779 227.499L871.576 225.169L867.111 224.004L866.82 223.907V224.004L866.237 228.081L857.21 224.198L857.404 229.828L852.454 239.243L849.445 242.543L847.504 248.27L841.583 246.232L838.671 259.432L836.342 263.897L835.953 269.721L834.206 272.536L827.703 274.477L822.365 278.651L819.841 279.039L817.414 281.175L811.299 278.942L810.232 275.933L810.038 275.836Z" fill="#F9F9F9"/>
            <path d="M907.198 256.715L907.101 255.938M908.751 270.983H909.042L909.333 270.886L909.139 270.401L908.751 270.983ZM905.451 260.112V260.597L905.936 260.306L905.451 260.112ZM906.615 257.879L906.421 259.141L906.13 259.627L906.615 257.879ZM907.489 255.356L907.586 254.773L907.392 255.356H907.489ZM908.071 252.735L908.363 252.056L907.877 253.803L908.071 252.735ZM908.169 251.279L908.557 249.144L908.071 249.629L908.169 251.279ZM909.916 241.67L910.11 240.796L910.013 240.99L909.916 241.67ZM909.527 239.437L908.266 239.923L906.324 240.796L905.645 241.67L905.936 241.767L903.607 256.229L904.48 258.559L905.839 252.541L908.363 244.679L909.527 239.535V239.437ZM911.469 238.661L911.177 238.758L911.08 239.146L910.595 242.155L910.983 241.088L911.469 238.661ZM810.038 275.836L809.358 276.807L804.699 282.728L801.011 285.639L800.234 288.163L794.605 295.54L787.325 299.422L786.646 300.199L788.393 299.908L804.99 296.511L811.591 295.152L817.123 293.599L818.676 293.307L818.773 293.502L843.816 288.843L868.567 282.533L907.392 271.468L907.101 270.983L907.004 270.692L907.683 271.371L908.46 271.177L908.363 271.08L907.683 267.78L908.168 267.877L909.721 270.789L910.013 270.692L910.207 270.595L909.819 269.818L905.839 263.703L900.889 264.577L898.656 266.421L896.521 264.48L889.241 262.053L884.194 261.859L893.997 260.985L899.433 264.674L900.986 262.247L896.618 256.715L899.724 256.909L898.074 252.444L894.191 252.638L884.97 245.164H883.806L896.812 251.57L895.939 247.105L896.812 245.649L890.212 243.126L884.485 242.738L881.67 240.214L879.341 241.67L878.467 234.972L879.438 235.167L879.244 229.731L879.05 229.537L878.855 229.634L878.661 229.537L878.176 229.149L877.885 228.857L874.779 227.499L871.576 225.169L867.111 224.004L866.82 223.907V224.004L866.237 228.081L857.21 224.198L857.404 229.828L852.454 239.243L849.445 242.543L847.504 248.27L841.583 246.232L838.671 259.432L836.342 263.897L835.953 269.721L834.206 272.536L827.703 274.477L822.365 278.651L819.841 279.039L817.414 281.175L811.299 278.942L810.232 275.933L810.038 275.836Z" stroke="black" stroke-width="0.970631" stroke-linejoin="round"/>
        </g>
        <path id="Wisconsin" d="M705.792 134.803L703.365 137.812L701.909 142.18L702.589 144.606L705.792 134.803ZM650.078 111.993L651.534 109.955L650.466 110.925L650.078 111.993ZM652.31 108.79L651.825 108.207L650.757 108.887L652.31 108.79ZM631.15 114.225L628.918 116.749L629.986 128.397L623.774 134.026L622.609 139.462L626.006 142.568L625.035 155.962L628.627 158.68L630.956 158.874L638.333 163.339L642.992 168.192L648.913 171.201L650.272 178.675V179.161L653.087 182.558L652.31 185.178L653.281 190.905L656.193 194.885L661.531 197.7L661.434 198.185L682.594 195.758L690.456 194.788L703.56 192.944L703.171 191.488V186.926L700.551 182.072L699.871 175.957L701.133 169.163L700.453 163.922L702.783 157.418L701.909 156.351L702.104 150.333L703.365 145.771L701.909 144.218L699.095 145.188L697.542 149.265L693.853 151.401L695.018 146.256L698.318 141.888L698.512 139.947L698.609 139.85L693.95 135.191V128.591L688.709 124.32L681.526 123.835L674.149 121.893L658.231 117.04L655.125 115.293L654.834 115.584L649.884 114.905L648.234 115.875L648.913 108.79L640.954 112.866L631.247 114.419L631.15 114.225ZM650.175 109.081L649.981 108.402L649.301 108.693L650.175 109.081ZM646.681 108.402L646.972 107.819L646.778 107.625L646.681 108.402ZM653.766 106.751L653.475 105.393L653.184 107.043L653.766 106.751Z" fill="#F9F9F9" stroke="black" stroke-width="0.970631" stroke-linejoin="round"/>
        <path id="West Virginia" d="M836.73 223.713L822.947 227.11L818.676 208.668L818.482 208.765L817.997 230.022L814.891 234.681L811.299 237.399L810.62 236.622L806.64 242.058L806.932 246.328L804.505 246.717L801.205 251.764L802.37 255.064L800.914 258.267L796.74 260.306V260.5L798.681 267.294L804.214 273.991L807.32 275.739H809.746L810.038 275.836L810.232 275.933L811.299 278.942L817.414 281.174L819.841 279.039L822.365 278.651L827.703 274.477L834.206 272.536L835.953 269.721L836.342 263.897L838.671 259.432L841.583 246.232L847.504 248.27L849.445 242.543L852.454 239.243L857.404 229.828L857.21 224.198L866.237 228.081L866.82 224.004V223.907L864.005 219.054L858.181 218.374L854.784 220.995V222.936L851.872 223.616L847.601 226.625L845.369 227.11L840.904 233.419L838.671 223.228L836.73 223.713Z" fill="#F9F9F9" stroke="black" stroke-width="0.970631" stroke-linejoin="round"/>
        <path id="Delaware" d="M893.803 207.698L894.192 209.154L902.248 232.158L911.469 229.44L911.372 229.246H911.566L911.857 229.343L912.051 229.246L911.857 228.857L909.527 222.645L898.171 211.871L898.656 204.397H896.327L894.58 205.756L893.803 207.698Z" fill="#F9F9F9" stroke="black" stroke-width="0.970631" stroke-linejoin="round"/>
        <path id="District of Columbia" d="M878.176 229.148L878.661 229.536L878.855 229.633L879.05 229.536L879.244 229.633L879.923 230.022L880.117 230.313V230.992L880.311 231.38L881.573 229.051L880.214 228.274L878.564 228.372L878.176 229.148Z" fill="#F9F9F9" stroke="black" stroke-width="0.970631" stroke-linejoin="round"/>
        <path id="Maryland" d="M911.566 238.272L912.245 233.031L911.663 236.913L911.275 238.563L911.178 238.758L911.469 238.66L911.566 238.272ZM912.051 229.245L911.857 229.342L912.051 229.925V231.09V229.245ZM838.671 223.227L840.904 233.419L845.369 227.11L847.601 226.625L851.872 223.616L854.784 222.936V220.995L858.181 218.374L864.005 219.054L866.82 223.907L867.111 224.004L871.576 225.169L874.779 227.498L877.885 228.857L878.176 229.148L878.564 228.372L880.214 228.275L881.573 229.051L880.311 231.381V231.478L878.467 237.107L884.485 240.99L890.503 241.281L894.483 243.125L892.833 238.466L887.688 236.719L886.426 232.74L889.63 237.01L892.25 237.399L889.921 235.069L888.077 228.178L888.562 224.198L886.523 219.83L888.659 218.083L890.212 212.453L889.63 220.801L891.28 223.616L892.833 220.316L893.706 225.751L892.056 229.731L896.812 231.478L892.736 232.837L894.871 236.816L898.365 237.981L900.306 234.584L900.112 239.34L903.412 239.243L905.548 241.669H905.645L906.324 240.796L908.266 239.922L909.528 239.437L909.43 239.243L911.954 231.769V231.478L911.469 229.536V229.439L902.248 232.157L894.192 209.153L893.803 207.697L892.153 208.183L885.262 210.318L847.31 220.898L840.419 222.742L838.671 223.227Z" fill="#F9F9F9" stroke="black" stroke-width="0.970631" stroke-linejoin="round"/>
        <path id="New Jersey" d="M916.807 207.309L916.322 206.145V207.309H916.807ZM917.778 203.718L918.069 200.806L917.486 203.33L917.778 203.718ZM913.798 173.92L903.606 171.396L901.859 170.911L900.209 170.522L896.133 179.549L897.88 181.685L897.783 188.188L899.627 188.479L903.412 198.38L903.218 198.671L898.462 205.659L898.947 210.998L910.401 214.88L910.498 219.345L913.119 215.657L913.507 210.318L916.225 208.474L915.157 204.495L917.195 199.738V189.353L916.516 185.955L911.954 186.053L913.119 181.394L913.798 173.92Z" fill="#F9F9F9" stroke="black" stroke-width="0.970631" stroke-linejoin="round"/>
        <path id="New York" d="M913.507 181.781L912.051 183.82L911.663 184.402L913.507 181.781ZM926.902 177.025L931.755 172.754V172.56L926.902 177.025ZM914.186 180.034V176.734L913.895 178.481L914.186 180.034ZM936.705 164.504L935.54 164.213L935.346 165.086L936.705 164.504ZM939.326 162.757L939.229 163.728L939.423 163.145L939.326 162.757ZM936.608 162.854L930.105 168.872L920.107 173.143L917.486 175.375L917.292 177.511L914.575 179.743L914.963 182.655L919.136 181.005L925.251 176.055L932.046 172.463L942.335 162.757L935.055 168.29L932.725 169.26L936.608 162.854ZM939.617 158.777L940.005 158.195L938.84 159.554L939.617 158.777ZM830.518 155.186L828.965 154.992L830.13 156.545L830.518 155.186ZM862.743 125.485L862.937 124.417L862.16 125.388L862.743 125.485ZM863.228 118.496L862.84 118.69L862.355 119.758L863.228 118.496ZM822.17 173.628L822.85 176.54L827.994 177.802L857.501 169.745L887.203 160.816L892.638 164.989L893.706 167.416L900.015 170.134L900.209 170.522L901.859 170.91L903.606 171.396L913.798 173.919L913.604 173.434L914.477 177.413L916.419 176.928L917.486 172.56V172.463L915.739 170.813L918.263 167.707L917.098 166.251L913.41 151.983L913.216 151.012L912.73 150.721L912.439 146.45L912.148 141.791L911.857 136.744V136.453L911.663 136.55L906.809 120.632L901.665 112.575L900.209 102.966L895.841 92.7744L895.259 93.0656L874.973 99.86L870.896 104.228L866.334 112.964L866.528 114.905L860.51 124.029L864.199 125.291L865.266 132.182L860.996 137.812L848.183 145.577L845.757 144.606L836.245 145.965L827.412 151.303L827.897 154.118L831.003 156.836L829.256 165.378L822.268 173.531L822.17 173.628Z" fill="#F9F9F9" stroke="black" stroke-width="0.970631" stroke-linejoin="round"/>
        <path id="Pennsylvania" d="M900.015 170.133L893.706 167.416L892.638 164.989L887.203 160.815L857.502 169.745L827.994 177.801L822.85 176.54L822.171 173.628L820.521 174.89L817.9 176.734L813.144 181.587L812.561 182.072L815.279 194.011L815.764 196.146L818.191 206.629L818.676 208.668L822.947 227.11L836.73 223.712L838.671 223.227L840.418 222.742L847.31 220.898L885.262 210.318L892.153 208.182L893.803 207.697L894.58 205.756L896.327 204.397H898.656L898.948 203.523L902.733 199.252L903.121 198.573L903.412 198.379L899.627 188.478L897.783 188.187L897.88 181.684L896.133 179.549L900.209 170.522L900.015 170.133Z" fill="#F9F9F9" stroke="black" stroke-width="0.970631" stroke-linejoin="round"/>
        <path id="Maine" d="M946.799 118.399H946.702L946.896 118.496L946.799 118.399ZM953.982 97.7247L953.206 96.5599V97.1423L953.982 97.7247ZM952.623 96.657V95.6864L952.526 95.104L952.623 96.657ZM956.118 92.5803L955.923 92.4833L956.021 92.7745L956.118 92.5803ZM965.824 87.7272L965.63 86.2712L965.241 86.9507L965.824 87.7272ZM963.397 88.3096L963.494 87.2419L962.33 87.436L963.397 88.3096ZM966.989 85.1065H966.6V85.3006L966.989 85.1065ZM962.135 86.5624L961.262 86.3683L961.165 87.2419L962.135 86.5624ZM967.086 83.5535L967.959 84.2329L967.668 83.4564L967.086 83.5535ZM964.465 83.6505L963.591 85.3006L964.756 84.7182L964.465 83.6505ZM960.291 83.7476L959.903 84.33L960.194 85.2035L960.291 83.7476ZM966.018 80.5445L965.921 79.768L965.63 80.2533L966.018 80.5445ZM965.533 80.9328L964.659 80.1563V80.8357L965.533 80.9328ZM960.097 83.1652L959.903 82.0975L959.515 82.9711L960.097 83.1652ZM969.318 79.768L967.862 81.9034L967.765 80.3504L969.318 79.768ZM976.404 73.2648L975.724 72.2942L975.336 72.4883L976.404 73.2648ZM979.024 68.8969L978.442 68.6058L978.345 68.8969H979.024ZM980.286 61.326H979.413L980.383 61.6172L980.286 61.326ZM981.742 62.2967L981.451 60.5495L980.674 60.4525L981.742 62.2967ZM980.189 60.7436L979.995 58.8994L979.316 60.1613L980.189 60.7436ZM923.893 75.9826L937.967 108.984L938.161 109.663L944.276 117.137V117.04L945.246 116.749L945.441 111.216L946.994 109.275L947.964 104.131L947.091 103.257L948.741 98.21L954.37 95.5893L958.059 91.1244L959.418 83.3593L965.339 82.9711L964.562 78.9915L971.939 76.1766L972.424 71.8088L974.171 72.197L979.024 68.2175L981.16 63.0731L976.21 58.1229L970.968 57.0552L969.027 53.0756V50.7461L965.824 51.7167L962.232 50.4549V46.4753L952.526 25.5097L945.441 21.8213L937.578 28.4216L935.443 28.0333L933.599 24.6361L931.075 25.6068L927.484 43.4664L928.746 49.2902L929.813 61.1319L926.999 70.2558L928.94 71.7117L926.61 76.1766L924.087 75.7884L923.893 75.9826Z" fill="#F9F9F9" stroke="black" stroke-width="0.970631" stroke-linejoin="round"/>
        <path id="Michigan" d="M719.963 138.2L719.478 137.423L719.381 138.394L719.963 138.2ZM721.516 136.453L720.351 134.9L720.157 135.579L721.516 136.453ZM722.487 129.464L721.516 128.591V128.785L722.487 129.464ZM720.06 205.465L732.096 203.523L735.493 202.844L750.344 200.223L750.635 201.485L751.606 201.194L758.012 199.835L764.127 198.379L770.339 196.826L770.242 196.535L773.445 190.226L773.154 184.984L776.745 175.957L779.56 177.607L780.628 175.569L780.336 167.804L777.716 162.951L773.833 152.662L770.436 148.877L768.689 148.391L762.38 152.759L763.059 153.633L759.759 159.845L756.556 159.262L755.585 152.759L756.944 152.274L759.759 145.771L760.05 134.317L755.682 124.611L745.976 122.961L745.005 121.505L735.979 118.884L731.902 123.932L732.29 128.299L729.184 132.182L729.864 138.2L726.855 140.335V132.764L724.137 138.491L720.934 143.538L718.798 145.188L719.866 150.527L718.507 156.059L719.284 162.951L718.313 166.348L725.302 179.743L726.175 184.887L725.302 194.399L720.643 205.076L720.06 205.465ZM740.832 118.011L738.308 118.205L739.861 119.37L740.832 118.011ZM726.078 120.534H725.302L726.175 120.923L726.078 120.534ZM743.064 108.207L742.094 106.654L741.705 106.751L743.064 108.207ZM655.125 115.293L658.231 117.04L674.149 121.893L681.526 123.834L688.709 124.32L693.95 128.591V135.191L698.609 139.85V139.753L702.395 128.785L706.957 125.582L710.451 121.699L711.033 125.193L714.625 119.661L723.263 116.361L723.943 115.002L732.678 116.069L736.076 117.816L737.726 113.546L739.279 114.516L746.073 113.449L744.423 110.731L741.414 108.984L741.996 102.675L736.076 105.975L730.64 105.295L728.893 101.122L729.475 99.7627L722.099 103.257L717.342 103.548L708.801 108.79L707.83 110.731L702.589 109.469L699.289 110.925L692.688 105.198L678.032 100.733L677.741 98.9862L668.326 108.013L662.987 109.372L655.416 115.099L655.125 115.293ZM689.485 93.2596L678.129 98.8892L681.914 102.578L683.37 98.8892L687.253 94.1331L689.485 93.2596ZM676.77 79.9619L669.005 85.3004L668.617 87.9211L674.732 83.4562L676.77 79.9619Z" fill="#F9F9F9" stroke="black" stroke-width="0.970631" stroke-linejoin="round"/>
        <g id="Alaska">
            <path d="M101.283 542.953L100.797 543.147L101.186 543.244L101.283 542.953ZM103.127 541.885V542.176L103.321 542.079L103.127 541.885ZM104.098 542.371V542.176L104 542.274L104.098 542.371ZM103.903 542.176V542.079H103.709L103.903 542.176ZM28.1942 478.406L28.0971 479.085L28.2913 481.027L28.1942 478.406ZM27.7089 475.785L27.8059 476.659L27.903 476.368L27.7089 475.785ZM103.903 541.012L104.001 540.429L103.612 540.623L103.903 541.012ZM114.969 545.768L114.872 545.671L115.066 546.059L114.969 545.768ZM107.786 542.371L106.718 541.4V543.729L107.786 542.371ZM110.213 544.506L110.115 543.827L108.465 543.729L110.213 544.506ZM116.036 545.865L115.939 546.059H116.133L116.036 545.865ZM116.425 545.962H116.23L116.619 546.059L116.425 545.962ZM117.589 546.35H117.492H117.395H117.589ZM31.8826 480.541L32.2708 480.638L32.562 480.541H31.8826ZM115.454 544.991L114.677 544.894L114.969 545.185L115.454 544.991ZM26.6412 472.97L25.2823 472.388L25.1852 472.679L26.6412 472.97ZM117.881 545.185L117.686 545.088V545.185H117.881ZM123.801 546.35L120.016 546.641L119.142 547.03L123.801 546.35ZM19.7497 457.732H18.682L18.8761 458.023L19.7497 457.732ZM135.546 550.815V550.427H135.352L135.546 550.815ZM140.593 550.912L140.787 550.718L140.593 550.524V550.912ZM144.379 551.98L144.573 551.883H144.476L144.379 551.98ZM141.273 550.233L141.176 549.845H140.982L141.273 550.233ZM147.776 551.689L147.679 551.786H147.776V551.689ZM20.3321 452.781L18.8761 452.976L20.7203 454.626L20.3321 452.781ZM142.632 550.233L142.826 549.65H142.729L142.632 550.233ZM159.035 548.777L159.132 548.583L158.938 548.486L159.035 548.777ZM156.609 547.903L153.211 550.912L155.638 550.718L158.453 548.486L156.609 547.903ZM162.724 548.971L162.044 548.777L162.53 549.165L162.724 548.971ZM164.083 549.068L163.015 548.777L162.821 548.874L164.083 549.068ZM160.394 547.709H159.326L161.171 548.194L160.394 547.709ZM164.859 548.68L164.762 548.486L164.374 548.583L164.859 548.68ZM161.947 547.515L161.559 547.321V548.389L161.947 547.515ZM174.371 549.942L174.274 549.845H174.08L174.371 549.942ZM174.565 549.845V549.747L174.371 549.65L174.565 549.845ZM172.915 549.262L173.109 549.65V549.553L172.915 549.262ZM173.789 549.262L172.915 548.971L173.983 549.747L173.789 549.262ZM186.601 549.747L186.407 549.359H186.31L186.601 549.747ZM291.041 543.244L290.847 543.05L290.944 543.244H291.041ZM173.401 546.253V546.156L173.304 546.253H173.401ZM293.856 541.497L294.147 541.885H294.341L293.856 541.497ZM187.766 548.777L187.669 548.874V549.165L187.766 548.777ZM175.73 547.03L175.924 546.253H175.827L175.73 547.03ZM299.486 539.265L298.612 539.75L299.389 540.138L299.486 539.265ZM170.198 544.409L167.771 544.894L165.636 547.709L170.198 544.409ZM187.572 548.097L186.989 548.583L187.572 548.486V548.097ZM299.486 538.779L299.292 538.391L299.194 538.585L299.486 538.779ZM178.254 545.574L177.574 545.477L178.254 546.156V545.574ZM293.079 540.041L292.885 540.235L293.079 540.915V540.041ZM179.807 545.477L179.516 545.574L179.904 545.865L179.807 545.477ZM186.989 547.515H186.698L186.504 547.321L186.989 547.515ZM179.03 545.477L178.545 545.185L178.739 545.477H179.03ZM185.534 546.544L184.66 546.836L184.078 548.389L185.534 546.544ZM290.944 539.75V540.429L291.332 539.944L290.944 539.75ZM174.08 543.438L174.857 543.244H174.759L174.08 543.438ZM173.109 542.856L172.915 542.662V542.759L173.109 542.856ZM290.944 539.071L290.75 538.973L290.653 539.265L290.944 539.071ZM184.466 544.894L184.272 544.797L184.078 545.088L184.466 544.894ZM289.973 539.265L290.071 538.779L289.876 538.682L289.973 539.265ZM289.197 538.779L288.906 539.168L289.391 539.265L289.197 538.779ZM188.542 543.535L188.348 543.341H188.251L188.542 543.535ZM288.906 537.032L289.682 537.323L289.973 536.935L288.906 537.032ZM290.07 536.353L289.779 536.547L290.265 536.838L290.07 536.353ZM287.838 536.935L287.644 536.547L287.45 536.741L287.838 536.935ZM297.544 533.344L296.283 536.935L297.544 536.159V533.344ZM289.003 534.703L288.129 535.576L288.323 536.547L289.003 534.703ZM198.637 542.468V542.079L198.54 542.274L198.637 542.468ZM287.935 533.732L290.75 538.003L297.059 541.982L295.603 538.585L289.585 533.441L287.935 533.732ZM194.755 540.915L194.657 540.624L194.463 540.721L194.755 540.915ZM291.235 532.082L290.847 533.538L291.526 533.053L291.235 532.082ZM293.274 532.082L293.176 533.053L294.05 533.344L293.274 532.082ZM197.861 539.653L197.375 539.556L196.89 539.75L197.861 539.653ZM207.858 540.429L207.47 541.109L207.664 540.526L207.858 540.429ZM209.314 540.527L208.44 540.624L208.926 541.206L209.314 540.527ZM150.494 528.102L151.464 528.588L151.27 528.394L150.494 528.102ZM189.319 537.615H189.416V537.517L189.319 537.615ZM289.682 530.141L290.168 531.985L291.138 531.402L289.682 530.141ZM285.509 530.917L285.994 535.382L286.964 534.411L285.509 530.917ZM285.994 529.461L288.226 532.567L287.935 530.529L285.994 529.461ZM279.102 530.238L278.52 532.082L279.296 530.82L279.102 530.238ZM210.673 535.188L210.479 534.897L210.673 535.285V535.188ZM279.296 528.782L283.179 535.188L282.597 530.82L279.296 528.782ZM216.108 532.179L215.817 532.47L216.303 532.664L216.108 532.179ZM214.847 532.373L214.944 532.082H214.555L214.847 532.373ZM213.876 532.373L211.352 534.023L208.246 538.1L209.799 539.75L216.982 534.411L213.876 532.373ZM275.123 526.064L274.443 525.676V526.258L275.123 526.064ZM213.294 531.208L213.391 531.597L214.07 531.985L213.294 531.208ZM276.967 524.22L275.026 525.19L276.87 525.773L276.967 524.22ZM275.705 524.22L275.511 524.026L275.414 524.22H275.705ZM281.626 522.667L280.849 522.376L280.655 522.958L281.626 522.667ZM277.452 523.346L276.773 523.249V523.443L277.452 523.346ZM279.588 522.57L283.567 528.394L282.5 523.055L279.588 522.57ZM215.526 528.879L213.197 530.626L214.264 531.791L217.37 529.461L215.526 528.879ZM189.125 525.19L189.028 525.093V525.19H189.125ZM188.057 524.705L187.96 524.22V524.414L188.057 524.705ZM217.856 525.967L217.661 526.064V526.161L217.856 525.967ZM216.885 525.773H216.788L216.594 526.064L216.885 525.773ZM219.214 524.996L218.923 524.802V524.899L219.214 524.996ZM219.991 524.899L219.7 524.705V524.802L219.991 524.899ZM218.729 524.608H218.341V524.705L218.729 524.608ZM238.045 522.667L238.142 522.376L237.948 522.57L238.045 522.667ZM243.966 519.561L245.13 518.105L244.742 518.396L243.966 519.561ZM232.124 519.367L232.512 519.075L232.609 518.687L232.124 519.367ZM232.124 518.299L231.736 518.59L232.415 518.396L232.124 518.299ZM216.205 518.299L216.108 517.911H216.011L216.205 518.299ZM231.736 518.202L231.347 518.59L231.153 518.978L231.736 518.202ZM242.413 517.037H242.51H242.607H242.413ZM242.898 517.037L242.704 516.94V517.037H242.898ZM241.733 516.94L241.83 517.037V516.94H241.733ZM233.774 517.522L234.162 517.134L233.677 517.522H233.774ZM234.939 516.649L232.609 520.434L235.618 516.94L234.939 516.649ZM231.93 517.134L231.638 516.746L231.541 516.94L231.93 517.134ZM239.306 516.261L239.112 516.163L239.209 516.261H239.306ZM241.83 516.455V515.775L241.636 516.066L241.83 516.455ZM170.586 508.981L165.927 508.787L169.13 512.184L170.586 508.981ZM236.88 515.872L237.074 516.552L237.559 515.775L236.88 515.872ZM232.997 515.775L232.706 517.911L233.191 516.552L232.997 515.775ZM232.027 514.416L232.124 514.708L232.318 514.61L232.027 514.416ZM231.541 514.805L231.347 514.222L231.056 514.416L231.541 514.805ZM236.103 513.64V513.252L235.812 513.446L236.103 513.64ZM231.736 513.057V514.028L232.027 513.349L231.736 513.057ZM173.692 499.857L173.886 499.274L173.789 499.372L173.692 499.857ZM173.983 498.886L173.886 498.789L173.789 498.886H173.983ZM180.583 493.839L180.195 493.645V493.742L180.583 493.839ZM180.001 493.451V493.257L179.807 493.451H180.001ZM164.471 488.889L164.277 488.403L164.18 488.112L164.471 488.889ZM165.927 487.142H166.024L166.121 487.239L165.927 487.142ZM163.306 486.656L162.53 485.686L163.112 486.462L163.306 486.656ZM161.753 485.103H161.559L161.85 485.2L161.753 485.103ZM187.475 491.606L186.407 491.704L186.989 491.995L187.475 491.606ZM160.685 482.191L159.909 485.103L162.335 485.491L165.539 488.792L167.48 487.918L160.685 482.191ZM177.671 483.356V483.162V483.259V483.356ZM172.818 473.067L172.624 472.97L172.721 473.067H172.818ZM175.633 474.038L175.924 473.941H175.827L175.633 474.038ZM177.574 473.456H177.866L178.739 473.067L177.574 473.456ZM181.069 472.388L181.263 472.194L180.972 472.388H181.069ZM181.554 472.291L182.136 472L181.651 472.097L181.554 472.291ZM183.01 471.708L182.525 471.806V471.903L183.01 471.708ZM245.324 454.14L244.936 453.849L244.257 453.558L245.324 454.14ZM194.463 452.005L195.337 450.84L194.852 451.228L194.463 452.005ZM195.628 450.646L196.016 450.063L195.822 450.258L195.628 450.646ZM196.21 449.869L196.89 449.287L196.502 449.481L196.21 449.869ZM226.785 450.063L227.271 450.549H227.562L226.785 450.063ZM211.158 443.657L207.179 446.957L204.752 446.278L199.122 449.481L198.055 448.802L191.648 455.984L185.145 457.44L185.728 460.934L188.64 464.914L194.075 470.155L193.202 472.194L197.278 473.941L195.143 474.329L192.522 472.291L193.881 475.3L192.134 476.367L186.601 471.32L182.233 472.097L174.759 474.912L178.157 478.697L177.671 481.027L179.904 483.744L187.281 486.656L192.619 483.938L193.493 485.977L192.037 492.092H187.572L182.33 494.421L182.039 492.771L179.321 493.839L178.06 496.654L173.595 500.051V505.001L175.342 505.778L173.983 509.951L179.807 514.999L183.495 513.446L182.719 519.658L183.786 521.017L188.251 521.987L189.901 523.831L193.784 524.123L195.628 526.064L199.608 524.899L197.763 527.423L196.308 532.567L184.466 540.235L182.913 541.788L180.68 540.914L177.089 541.788L171.945 545.185L180.001 542.856L181.166 544.603L191.551 541.206L191.843 542.565L195.919 538.488L204.461 532.567L205.14 532.955L212.614 527.034L210.673 524.705L213.197 520.531L219.797 512.669L224.844 511.698L226.397 512.766L220.282 514.513L218.632 521.017L218.826 524.511L220.962 524.317L231.25 518.105L232.027 515.775L231.153 512.184L234.259 512.96L236.492 511.504L242.898 515.387L242.413 516.455L256.972 518.299L260.369 517.231L261.34 518.687L273.958 524.705L276.093 523.443L276.288 516.163L277.938 519.464L286.091 525.384L286.77 527.811L293.856 531.79L295.7 536.935L297.447 532.955L301.039 539.944L303.465 535.964L301.524 531.014L294.05 530.238L282.597 519.269L276.385 514.707L271.629 519.366H268.814L262.31 515.096L255.904 514.804L246.78 457.246L245.227 454.528L241.539 452.296L236.006 453.364L231.736 452.49L226.3 450.355L220.573 450.743L219.117 448.025L214.555 447.346L213.779 445.696L211.741 448.025L211.158 443.657Z" fill="#F9F9F9"/>
            <path d="M104.874 543.535V543.632M102.253 541.4V541.303M175.051 548.291V548.389M177.477 546.544L177.38 546.35M182.525 540.818H182.427M189.028 537.712L189.125 537.615M191.94 536.547L192.037 536.45M201.452 534.994L201.355 534.897M148.747 499.663L148.844 499.274M224.359 511.893V511.602M178.254 496.557V496.46M178.254 496.168L178.157 495.974M180.001 493.645H179.904M161.947 484.036L161.753 483.938M101.283 542.953L100.797 543.147L101.186 543.244L101.283 542.953ZM103.127 541.885V542.176L103.321 542.079L103.127 541.885ZM104.098 542.371V542.176L104 542.274L104.098 542.371ZM103.903 542.176V542.079H103.709L103.903 542.176ZM28.1942 478.406L28.0971 479.085L28.2913 481.027L28.1942 478.406ZM27.7089 475.785L27.8059 476.659L27.903 476.368L27.7089 475.785ZM103.903 541.012L104.001 540.429L103.612 540.623L103.903 541.012ZM114.969 545.768L114.872 545.671L115.066 546.059L114.969 545.768ZM107.786 542.371L106.718 541.4V543.729L107.786 542.371ZM110.213 544.506L110.115 543.827L108.465 543.729L110.213 544.506ZM116.036 545.865L115.939 546.059H116.133L116.036 545.865ZM116.425 545.962H116.23L116.619 546.059L116.425 545.962ZM117.589 546.35H117.492H117.395H117.589ZM31.8826 480.541L32.2708 480.638L32.562 480.541H31.8826ZM115.454 544.991L114.677 544.894L114.969 545.185L115.454 544.991ZM26.6412 472.97L25.2823 472.388L25.1852 472.679L26.6412 472.97ZM117.881 545.185L117.686 545.088V545.185H117.881ZM123.801 546.35L120.016 546.641L119.142 547.03L123.801 546.35ZM19.7497 457.732H18.682L18.8761 458.023L19.7497 457.732ZM135.546 550.815V550.427H135.352L135.546 550.815ZM140.593 550.912L140.787 550.718L140.593 550.524V550.912ZM144.379 551.98L144.573 551.883H144.476L144.379 551.98ZM141.273 550.233L141.176 549.845H140.982L141.273 550.233ZM147.776 551.689L147.679 551.786H147.776V551.689ZM20.3321 452.781L18.8761 452.976L20.7203 454.626L20.3321 452.781ZM142.632 550.233L142.826 549.65H142.729L142.632 550.233ZM159.035 548.777L159.132 548.583L158.938 548.486L159.035 548.777ZM156.609 547.903L153.211 550.912L155.638 550.718L158.453 548.486L156.609 547.903ZM162.724 548.971L162.044 548.777L162.53 549.165L162.724 548.971ZM164.083 549.068L163.015 548.777L162.821 548.874L164.083 549.068ZM160.394 547.709H159.326L161.171 548.194L160.394 547.709ZM164.859 548.68L164.762 548.486L164.374 548.583L164.859 548.68ZM161.947 547.515L161.559 547.321V548.389L161.947 547.515ZM174.371 549.942L174.274 549.845H174.08L174.371 549.942ZM174.565 549.845V549.747L174.371 549.65L174.565 549.845ZM172.915 549.262L173.109 549.65V549.553L172.915 549.262ZM173.789 549.262L172.915 548.971L173.983 549.747L173.789 549.262ZM186.601 549.747L186.407 549.359H186.31L186.601 549.747ZM291.041 543.244L290.847 543.05L290.944 543.244H291.041ZM173.401 546.253V546.156L173.304 546.253H173.401ZM293.856 541.497L294.147 541.885H294.341L293.856 541.497ZM187.766 548.777L187.669 548.874V549.165L187.766 548.777ZM175.73 547.03L175.924 546.253H175.827L175.73 547.03ZM299.486 539.265L298.612 539.75L299.389 540.138L299.486 539.265ZM170.198 544.409L167.771 544.894L165.636 547.709L170.198 544.409ZM187.572 548.097L186.989 548.583L187.572 548.486V548.097ZM299.486 538.779L299.292 538.391L299.194 538.585L299.486 538.779ZM178.254 545.574L177.574 545.477L178.254 546.156V545.574ZM293.079 540.041L292.885 540.235L293.079 540.915V540.041ZM179.807 545.477L179.516 545.574L179.904 545.865L179.807 545.477ZM186.989 547.515H186.698L186.504 547.321L186.989 547.515ZM179.03 545.477L178.545 545.185L178.739 545.477H179.03ZM185.534 546.544L184.66 546.836L184.078 548.389L185.534 546.544ZM290.944 539.75V540.429L291.332 539.944L290.944 539.75ZM174.08 543.438L174.857 543.244H174.759L174.08 543.438ZM173.109 542.856L172.915 542.662V542.759L173.109 542.856ZM290.944 539.071L290.75 538.973L290.653 539.265L290.944 539.071ZM184.466 544.894L184.272 544.797L184.078 545.088L184.466 544.894ZM289.973 539.265L290.071 538.779L289.876 538.682L289.973 539.265ZM289.197 538.779L288.906 539.168L289.391 539.265L289.197 538.779ZM188.542 543.535L188.348 543.341H188.251L188.542 543.535ZM288.906 537.032L289.682 537.323L289.973 536.935L288.906 537.032ZM290.07 536.353L289.779 536.547L290.265 536.838L290.07 536.353ZM287.838 536.935L287.644 536.547L287.45 536.741L287.838 536.935ZM297.544 533.344L296.283 536.935L297.544 536.159V533.344ZM289.003 534.703L288.129 535.576L288.323 536.547L289.003 534.703ZM198.637 542.468V542.079L198.54 542.274L198.637 542.468ZM287.935 533.732L290.75 538.003L297.059 541.982L295.603 538.585L289.585 533.441L287.935 533.732ZM194.755 540.915L194.657 540.624L194.463 540.721L194.755 540.915ZM291.235 532.082L290.847 533.538L291.526 533.053L291.235 532.082ZM293.274 532.082L293.176 533.053L294.05 533.344L293.274 532.082ZM197.861 539.653L197.375 539.556L196.89 539.75L197.861 539.653ZM207.858 540.429L207.47 541.109L207.664 540.526L207.858 540.429ZM209.314 540.527L208.44 540.624L208.926 541.206L209.314 540.527ZM150.494 528.102L151.464 528.588L151.27 528.394L150.494 528.102ZM189.319 537.615H189.416V537.517L189.319 537.615ZM289.682 530.141L290.168 531.985L291.138 531.402L289.682 530.141ZM285.509 530.917L285.994 535.382L286.964 534.411L285.509 530.917ZM285.994 529.461L288.226 532.567L287.935 530.529L285.994 529.461ZM279.102 530.238L278.52 532.082L279.296 530.82L279.102 530.238ZM210.673 535.188L210.479 534.897L210.673 535.285V535.188ZM279.296 528.782L283.179 535.188L282.597 530.82L279.296 528.782ZM216.108 532.179L215.817 532.47L216.303 532.664L216.108 532.179ZM214.847 532.373L214.944 532.082H214.555L214.847 532.373ZM213.876 532.373L211.352 534.023L208.246 538.1L209.799 539.75L216.982 534.411L213.876 532.373ZM275.123 526.064L274.443 525.676V526.258L275.123 526.064ZM213.294 531.208L213.391 531.597L214.07 531.985L213.294 531.208ZM276.967 524.22L275.026 525.19L276.87 525.773L276.967 524.22ZM275.705 524.22L275.511 524.026L275.414 524.22H275.705ZM281.626 522.667L280.849 522.376L280.655 522.958L281.626 522.667ZM277.452 523.346L276.773 523.249V523.443L277.452 523.346ZM279.588 522.57L283.567 528.394L282.5 523.055L279.588 522.57ZM215.526 528.879L213.197 530.626L214.264 531.791L217.37 529.461L215.526 528.879ZM189.125 525.19L189.028 525.093V525.19H189.125ZM188.057 524.705L187.96 524.22V524.414L188.057 524.705ZM217.856 525.967L217.661 526.064V526.161L217.856 525.967ZM216.885 525.773H216.788L216.594 526.064L216.885 525.773ZM219.214 524.996L218.923 524.802V524.899L219.214 524.996ZM219.991 524.899L219.7 524.705V524.802L219.991 524.899ZM218.729 524.608H218.341V524.705L218.729 524.608ZM238.045 522.667L238.142 522.376L237.948 522.57L238.045 522.667ZM243.966 519.561L245.13 518.105L244.742 518.396L243.966 519.561ZM232.124 519.367L232.512 519.075L232.609 518.687L232.124 519.367ZM232.124 518.299L231.736 518.59L232.415 518.396L232.124 518.299ZM216.205 518.299L216.108 517.911H216.011L216.205 518.299ZM231.736 518.202L231.347 518.59L231.153 518.978L231.736 518.202ZM242.413 517.037H242.51H242.607H242.413ZM242.898 517.037L242.704 516.94V517.037H242.898ZM241.733 516.94L241.83 517.037V516.94H241.733ZM233.774 517.522L234.162 517.134L233.677 517.522H233.774ZM234.939 516.649L232.609 520.434L235.618 516.94L234.939 516.649ZM231.93 517.134L231.638 516.746L231.541 516.94L231.93 517.134ZM239.306 516.261L239.112 516.163L239.209 516.261H239.306ZM241.83 516.455V515.775L241.636 516.066L241.83 516.455ZM170.586 508.981L165.927 508.787L169.13 512.184L170.586 508.981ZM236.88 515.872L237.074 516.552L237.559 515.775L236.88 515.872ZM232.997 515.775L232.706 517.911L233.191 516.552L232.997 515.775ZM232.027 514.416L232.124 514.708L232.318 514.61L232.027 514.416ZM231.541 514.805L231.347 514.222L231.056 514.416L231.541 514.805ZM236.103 513.64V513.252L235.812 513.446L236.103 513.64ZM231.736 513.057V514.028L232.027 513.349L231.736 513.057ZM173.692 499.857L173.886 499.274L173.789 499.372L173.692 499.857ZM173.983 498.886L173.886 498.789L173.789 498.886H173.983ZM180.583 493.839L180.195 493.645V493.742L180.583 493.839ZM180.001 493.451V493.257L179.807 493.451H180.001ZM164.471 488.889L164.277 488.403L164.18 488.112L164.471 488.889ZM165.927 487.142H166.024L166.121 487.239L165.927 487.142ZM163.306 486.656L162.53 485.686L163.112 486.462L163.306 486.656ZM161.753 485.103H161.559L161.85 485.2L161.753 485.103ZM187.475 491.606L186.407 491.704L186.989 491.995L187.475 491.606ZM160.685 482.191L159.909 485.103L162.335 485.491L165.539 488.792L167.48 487.918L160.685 482.191ZM177.671 483.356V483.162V483.259V483.356ZM172.818 473.067L172.624 472.97L172.721 473.067H172.818ZM175.633 474.038L175.924 473.941H175.827L175.633 474.038ZM177.574 473.456H177.866L178.739 473.067L177.574 473.456ZM181.069 472.388L181.263 472.194L180.972 472.388H181.069ZM181.554 472.291L182.136 472L181.651 472.097L181.554 472.291ZM183.01 471.708L182.525 471.806V471.903L183.01 471.708ZM245.324 454.14L244.936 453.849L244.257 453.558L245.324 454.14ZM194.463 452.005L195.337 450.84L194.852 451.228L194.463 452.005ZM195.628 450.646L196.016 450.063L195.822 450.258L195.628 450.646ZM196.21 449.869L196.89 449.287L196.502 449.481L196.21 449.869ZM226.785 450.063L227.271 450.549H227.562L226.785 450.063ZM211.158 443.657L207.179 446.957L204.752 446.278L199.122 449.481L198.055 448.802L191.648 455.984L185.145 457.44L185.728 460.934L188.64 464.914L194.075 470.155L193.202 472.194L197.278 473.941L195.143 474.329L192.522 472.291L193.881 475.3L192.134 476.367L186.601 471.32L182.233 472.097L174.759 474.912L178.157 478.697L177.671 481.027L179.904 483.744L187.281 486.656L192.619 483.938L193.493 485.977L192.037 492.092H187.572L182.33 494.421L182.039 492.771L179.321 493.839L178.06 496.654L173.595 500.051V505.001L175.342 505.778L173.983 509.951L179.807 514.999L183.495 513.446L182.719 519.658L183.786 521.017L188.251 521.987L189.901 523.831L193.784 524.123L195.628 526.064L199.608 524.899L197.763 527.423L196.308 532.567L184.466 540.235L182.913 541.788L180.68 540.914L177.089 541.788L171.945 545.185L180.001 542.856L181.166 544.603L191.551 541.206L191.843 542.565L195.919 538.488L204.461 532.567L205.14 532.955L212.614 527.034L210.673 524.705L213.197 520.531L219.797 512.669L224.844 511.698L226.397 512.766L220.282 514.513L218.632 521.017L218.826 524.511L220.962 524.317L231.25 518.105L232.027 515.775L231.153 512.184L234.259 512.96L236.492 511.504L242.898 515.387L242.413 516.455L256.972 518.299L260.369 517.231L261.34 518.687L273.958 524.705L276.093 523.443L276.288 516.163L277.938 519.464L286.091 525.384L286.77 527.811L293.856 531.79L295.7 536.935L297.447 532.955L301.039 539.944L303.465 535.964L301.524 531.014L294.05 530.238L282.597 519.269L276.385 514.707L271.629 519.366H268.814L262.31 515.096L255.904 514.804L246.78 457.246L245.227 454.528L241.539 452.296L236.006 453.364L231.736 452.49L226.3 450.355L220.573 450.743L219.117 448.025L214.555 447.346L213.779 445.696L211.741 448.025L211.158 443.657Z" stroke="black" stroke-width="0.970631" stroke-linejoin="round"/>
        </g>
    </g>
</svg>
